<svg width="1621" height="363" viewBox="0 0 1621 363" fill="none" xmlns="http://www.w3.org/2000/svg">
<g filter="url(#filter0_b_2001_78)">
<rect x="0.128906" y="0.575684" width="1619.99" height="362.01" rx="181.005" fill="black" fill-opacity="0.3"/>
<rect x="2.39147" y="2.83825" width="1615.47" height="357.485" rx="178.742" stroke="url(#paint0_linear_2001_78)" stroke-width="4.52513"/>
</g>
<path d="M597.215 212.128V142.215H573.798V132.938H632.059V142.215H608.528V212.128H597.215ZM635.742 212.128V155.111H645.923L646.941 165.859C648.224 163.294 649.883 161.145 651.919 159.41C653.955 157.6 656.331 156.205 659.046 155.224C661.837 154.244 665.004 153.754 668.549 153.754V165.745H664.476C662.138 165.745 659.913 166.047 657.802 166.65C655.69 167.178 653.805 168.121 652.145 169.479C650.561 170.836 649.317 172.684 648.412 175.022C647.507 177.36 647.055 180.264 647.055 183.733V212.128H635.742ZM696.699 213.485C692.023 213.485 688.139 212.694 685.047 211.11C681.955 209.526 679.655 207.414 678.146 204.775C676.638 202.06 675.884 199.156 675.884 196.064C675.884 192.293 676.864 189.087 678.825 186.448C680.786 183.733 683.576 181.659 687.196 180.226C690.817 178.793 695.153 178.076 700.206 178.076H715.026C715.026 174.758 714.536 172.005 713.555 169.818C712.575 167.631 711.104 166.009 709.143 164.953C707.258 163.822 704.844 163.257 701.903 163.257C698.509 163.257 695.606 164.086 693.192 165.745C690.779 167.329 689.27 169.705 688.667 172.872H677.354C677.807 168.875 679.164 165.481 681.427 162.691C683.765 159.825 686.744 157.638 690.364 156.129C693.984 154.546 697.831 153.754 701.903 153.754C707.258 153.754 711.745 154.697 715.365 156.582C718.985 158.467 721.701 161.145 723.511 164.614C725.396 168.008 726.339 172.081 726.339 176.832V212.128H716.497L715.592 202.512C714.762 204.02 713.782 205.453 712.65 206.811C711.519 208.168 710.161 209.337 708.578 210.318C707.069 211.298 705.297 212.053 703.261 212.58C701.3 213.184 699.113 213.485 696.699 213.485ZM698.849 204.322C701.262 204.322 703.449 203.832 705.41 202.851C707.371 201.871 709.03 200.551 710.388 198.892C711.821 197.157 712.877 195.234 713.555 193.122C714.309 190.935 714.724 188.71 714.8 186.448V186.108H701.337C698.094 186.108 695.455 186.523 693.419 187.353C691.458 188.107 690.025 189.163 689.12 190.52C688.215 191.878 687.762 193.462 687.762 195.272C687.762 197.157 688.177 198.779 689.007 200.136C689.912 201.418 691.194 202.437 692.853 203.191C694.512 203.945 696.511 204.322 698.849 204.322ZM764.988 213.485C759.558 213.485 754.769 212.203 750.621 209.639C746.473 206.999 743.23 203.455 740.892 199.005C738.629 194.48 737.498 189.351 737.498 183.62C737.498 177.812 738.629 172.684 740.892 168.234C743.23 163.785 746.473 160.278 750.621 157.713C754.844 155.074 759.671 153.754 765.101 153.754C769.551 153.754 773.473 154.659 776.866 156.469C780.26 158.204 782.9 160.692 784.785 163.935V130.676H796.098V212.128H786.03L784.785 203.304C783.654 205.039 782.183 206.698 780.373 208.282C778.563 209.79 776.376 211.034 773.812 212.015C771.248 212.995 768.306 213.485 764.988 213.485ZM766.798 203.643C770.343 203.643 773.473 202.814 776.188 201.155C778.903 199.495 780.977 197.157 782.41 194.141C783.918 191.124 784.672 187.617 784.672 183.62C784.672 179.622 783.918 176.153 782.41 173.212C780.977 170.195 778.903 167.857 776.188 166.198C773.473 164.463 770.343 163.596 766.798 163.596C763.404 163.596 760.35 164.463 757.635 166.198C754.92 167.857 752.808 170.195 751.299 173.212C749.791 176.153 749.037 179.622 749.037 183.62C749.037 187.617 749.791 191.124 751.299 194.141C752.808 197.157 754.92 199.495 757.635 201.155C760.35 202.814 763.404 203.643 766.798 203.643ZM836.23 213.485C830.799 213.485 825.973 212.241 821.749 209.752C817.526 207.263 814.207 203.794 811.794 199.344C809.456 194.895 808.287 189.729 808.287 183.846C808.287 177.812 809.456 172.571 811.794 168.121C814.207 163.596 817.526 160.089 821.749 157.6C825.973 155.036 830.875 153.754 836.456 153.754C842.037 153.754 846.826 154.998 850.823 157.487C854.82 159.976 857.912 163.294 860.1 167.442C862.287 171.515 863.38 176.04 863.38 181.018C863.38 181.772 863.343 182.601 863.267 183.507C863.267 184.336 863.229 185.279 863.154 186.335H816.545V178.303H852.067C851.841 173.551 850.257 169.856 847.316 167.216C844.375 164.501 840.717 163.143 836.343 163.143C833.25 163.143 830.422 163.86 827.858 165.293C825.294 166.65 823.22 168.687 821.636 171.402C820.128 174.041 819.373 177.398 819.373 181.47V184.638C819.373 188.861 820.128 192.444 821.636 195.385C823.22 198.251 825.294 200.438 827.858 201.946C830.422 203.379 833.213 204.096 836.23 204.096C839.85 204.096 842.829 203.304 845.167 201.72C847.505 200.136 849.239 197.987 850.371 195.272H861.683C860.703 198.741 859.044 201.871 856.706 204.661C854.368 207.377 851.464 209.526 847.995 211.11C844.601 212.694 840.679 213.485 836.23 213.485ZM903.197 212.128V132.938H914.51V212.128H903.197ZM954.681 213.485C949.251 213.485 944.462 212.203 940.314 209.639C936.166 206.999 932.923 203.455 930.585 199.005C928.322 194.48 927.191 189.351 927.191 183.62C927.191 177.812 928.322 172.684 930.585 168.234C932.923 163.785 936.166 160.278 940.314 157.713C944.537 155.074 949.364 153.754 954.794 153.754C959.244 153.754 963.165 154.659 966.559 156.469C969.953 158.204 972.593 160.692 974.478 163.935V130.676H985.791V212.128H975.723L974.478 203.304C973.347 205.039 971.876 206.698 970.066 208.282C968.256 209.79 966.069 211.034 963.505 212.015C960.941 212.995 957.999 213.485 954.681 213.485ZM956.491 203.643C960.036 203.643 963.165 202.814 965.881 201.155C968.596 199.495 970.67 197.157 972.103 194.141C973.611 191.124 974.365 187.617 974.365 183.62C974.365 179.622 973.611 176.153 972.103 173.212C970.67 170.195 968.596 167.857 965.881 166.198C963.165 164.463 960.036 163.596 956.491 163.596C953.097 163.596 950.043 164.463 947.328 166.198C944.612 167.857 942.501 170.195 940.992 173.212C939.484 176.153 938.73 179.622 938.73 183.62C938.73 187.617 939.484 191.124 940.992 194.141C942.501 197.157 944.612 199.495 947.328 201.155C950.043 202.814 953.097 203.643 956.491 203.643ZM1025.92 213.485C1020.49 213.485 1015.67 212.241 1011.44 209.752C1007.22 207.263 1003.9 203.794 1001.49 199.344C999.149 194.895 997.98 189.729 997.98 183.846C997.98 177.812 999.149 172.571 1001.49 168.121C1003.9 163.596 1007.22 160.089 1011.44 157.6C1015.67 155.036 1020.57 153.754 1026.15 153.754C1031.73 153.754 1036.52 154.998 1040.52 157.487C1044.51 159.976 1047.61 163.294 1049.79 167.442C1051.98 171.515 1053.07 176.04 1053.07 181.018C1053.07 181.772 1053.04 182.601 1052.96 183.507C1052.96 184.336 1052.92 185.279 1052.85 186.335H1006.24V178.303H1041.76C1041.53 173.551 1039.95 169.856 1037.01 167.216C1034.07 164.501 1030.41 163.143 1026.04 163.143C1022.94 163.143 1020.12 163.86 1017.55 165.293C1014.99 166.65 1012.91 168.687 1011.33 171.402C1009.82 174.041 1009.07 177.398 1009.07 181.47V184.638C1009.07 188.861 1009.82 192.444 1011.33 195.385C1012.91 198.251 1014.99 200.438 1017.55 201.946C1020.12 203.379 1022.91 204.096 1025.92 204.096C1029.54 204.096 1032.52 203.304 1034.86 201.72C1037.2 200.136 1038.93 197.987 1040.06 195.272H1051.38C1050.4 198.741 1048.74 201.871 1046.4 204.661C1044.06 207.377 1041.16 209.526 1037.69 211.11C1034.29 212.694 1030.37 213.485 1025.92 213.485ZM1083.4 213.485C1078.73 213.485 1074.84 212.694 1071.75 211.11C1068.66 209.526 1066.36 207.414 1064.85 204.775C1063.34 202.06 1062.59 199.156 1062.59 196.064C1062.59 192.293 1063.57 189.087 1065.53 186.448C1067.49 183.733 1070.28 181.659 1073.9 180.226C1077.52 178.793 1081.86 178.076 1086.91 178.076H1101.73C1101.73 174.758 1101.24 172.005 1100.26 169.818C1099.28 167.631 1097.81 166.009 1095.85 164.953C1093.96 163.822 1091.55 163.257 1088.61 163.257C1085.21 163.257 1082.31 164.086 1079.9 165.745C1077.48 167.329 1075.97 169.705 1075.37 172.872H1064.06C1064.51 168.875 1065.87 165.481 1068.13 162.691C1070.47 159.825 1073.45 157.638 1077.07 156.129C1080.69 154.546 1084.53 153.754 1088.61 153.754C1093.96 153.754 1098.45 154.697 1102.07 156.582C1105.69 158.467 1108.4 161.145 1110.21 164.614C1112.1 168.008 1113.04 172.081 1113.04 176.832V212.128H1103.2L1102.3 202.512C1101.47 204.02 1100.49 205.453 1099.35 206.811C1098.22 208.168 1096.87 209.337 1095.28 210.318C1093.77 211.298 1092 212.053 1089.96 212.58C1088 213.184 1085.82 213.485 1083.4 213.485ZM1085.55 204.322C1087.97 204.322 1090.15 203.832 1092.11 202.851C1094.07 201.871 1095.73 200.551 1097.09 198.892C1098.52 197.157 1099.58 195.234 1100.26 193.122C1101.01 190.935 1101.43 188.71 1101.5 186.448V186.108H1088.04C1084.8 186.108 1082.16 186.523 1080.12 187.353C1078.16 188.107 1076.73 189.163 1075.82 190.52C1074.92 191.878 1074.47 193.462 1074.47 195.272C1074.47 197.157 1074.88 198.779 1075.71 200.136C1076.62 201.418 1077.9 202.437 1079.56 203.191C1081.22 203.945 1083.21 204.322 1085.55 204.322ZM1148.41 213.485C1143.58 213.485 1139.36 212.694 1135.74 211.11C1132.12 209.526 1129.25 207.301 1127.14 204.435C1125.03 201.569 1123.75 198.213 1123.3 194.367H1134.84C1135.21 196.177 1135.93 197.836 1136.99 199.344C1138.12 200.853 1139.62 202.06 1141.51 202.965C1143.47 203.87 1145.77 204.322 1148.41 204.322C1150.9 204.322 1152.94 203.983 1154.52 203.304C1156.18 202.55 1157.39 201.569 1158.14 200.363C1158.89 199.08 1159.27 197.723 1159.27 196.29C1159.27 194.178 1158.74 192.594 1157.69 191.539C1156.71 190.407 1155.2 189.54 1153.16 188.937C1151.2 188.258 1148.83 187.655 1146.04 187.127C1143.4 186.674 1140.83 186.071 1138.34 185.317C1135.93 184.487 1133.74 183.469 1131.78 182.262C1129.9 181.055 1128.39 179.547 1127.26 177.737C1126.12 175.852 1125.56 173.551 1125.56 170.836C1125.56 167.593 1126.43 164.69 1128.16 162.125C1129.9 159.486 1132.35 157.449 1135.51 156.016C1138.76 154.508 1142.57 153.754 1146.94 153.754C1153.28 153.754 1158.37 155.262 1162.21 158.279C1166.06 161.296 1168.32 165.557 1169 171.062H1158.03C1157.73 168.498 1156.59 166.537 1154.63 165.18C1152.67 163.747 1150.07 163.03 1146.83 163.03C1143.58 163.03 1141.1 163.671 1139.36 164.953C1137.63 166.236 1136.76 167.933 1136.76 170.044C1136.76 171.402 1137.25 172.609 1138.23 173.664C1139.21 174.72 1140.64 175.625 1142.53 176.379C1144.49 177.058 1146.86 177.699 1149.66 178.303C1153.65 179.057 1157.24 180 1160.4 181.131C1163.57 182.262 1166.1 183.921 1167.98 186.108C1169.87 188.296 1170.81 191.425 1170.81 195.498C1170.89 199.043 1169.98 202.173 1168.1 204.888C1166.29 207.603 1163.68 209.715 1160.29 211.223C1156.97 212.731 1153.01 213.485 1148.41 213.485Z" fill="white"/>
<circle cx="181.132" cy="181.579" r="149.328" fill="url(#paint1_linear_2001_78)"/>
<path d="M187.534 163.283C187.534 167.65 183.995 171.189 179.629 171.189C175.262 171.189 171.723 167.65 171.723 163.283C171.723 158.917 175.262 155.377 179.629 155.377C183.995 155.377 187.534 158.917 187.534 163.283Z" stroke="#0F0627" stroke-width="7.90599"/>
<path d="M155.871 187.046C149.79 180.966 146.029 172.566 146.029 163.287C146.029 154.008 149.79 145.608 155.871 139.528" stroke="#0F0627" stroke-width="11.859"/>
<path d="M139.095 203.814C128.722 193.441 122.307 179.112 122.307 163.284C122.307 147.456 128.722 133.126 139.095 122.753" stroke="#0F0627" stroke-width="11.859"/>
<path d="M220.154 122.753C230.527 133.126 236.942 147.456 236.942 163.284C236.942 179.112 230.527 193.441 220.154 203.814" stroke="#0F0627" stroke-width="11.859"/>
<path d="M203.387 139.528C209.467 145.608 213.228 154.008 213.228 163.287C213.228 172.566 209.467 180.966 203.387 187.046" stroke="#0F0627" stroke-width="11.859"/>
<path d="M179.628 202.813L155.91 236.414H203.346L179.628 202.813Z" stroke="#0F0627" stroke-width="11.859"/>
<defs>
<filter id="filter0_b_2001_78" x="-311.2" y="-310.753" width="2242.65" height="984.668" filterUnits="userSpaceOnUse" color-interpolation-filters="sRGB">
<feFlood flood-opacity="0" result="BackgroundImageFix"/>
<feGaussianBlur in="BackgroundImageFix" stdDeviation="155.664"/>
<feComposite in2="SourceAlpha" operator="in" result="effect1_backgroundBlur_2001_78"/>
<feBlend mode="normal" in="SourceGraphic" in2="effect1_backgroundBlur_2001_78" result="shape"/>
</filter>
<linearGradient id="paint0_linear_2001_78" x1="810.126" y1="391.999" x2="689.88" y2="-121.033" gradientUnits="userSpaceOnUse">
<stop stop-color="#666666" stop-opacity="0"/>
<stop offset="1" stop-color="#666666"/>
</linearGradient>
<linearGradient id="paint1_linear_2001_78" x1="300.683" y1="286.561" x2="88.8979" y2="74.7757" gradientUnits="userSpaceOnUse">
<stop stop-color="#DE864B"/>
<stop offset="1" stop-color="#FFDAB5"/>
</linearGradient>
</defs>
</svg>
