<svg width="1621" height="363" viewBox="0 0 1621 363" fill="none" xmlns="http://www.w3.org/2000/svg">
<g filter="url(#filter0_b_2001_94)">
<rect x="0.525391" y="0.575684" width="1619.99" height="362.01" rx="181.005" fill="black" fill-opacity="0.3"/>
<rect x="2.78795" y="2.83825" width="1615.47" height="357.485" rx="178.742" stroke="url(#paint0_linear_2001_94)" stroke-width="4.52513"/>
</g>
<path d="M502.493 213.485C494.725 213.485 488.013 211.789 482.356 208.395C476.775 204.925 472.439 200.136 469.347 194.027C466.33 187.843 464.821 180.678 464.821 172.533C464.821 164.463 466.33 157.336 469.347 151.152C472.439 144.968 476.775 140.178 482.356 136.785C488.013 133.315 494.725 131.581 502.493 131.581C511.77 131.581 519.274 133.806 525.006 138.255C530.813 142.705 534.508 148.965 536.092 157.035H523.648C522.517 152.359 520.179 148.625 516.634 145.835C513.165 143.044 508.451 141.649 502.493 141.649C497.138 141.649 492.5 142.894 488.578 145.382C484.657 147.871 481.64 151.416 479.528 156.016C477.416 160.617 476.36 166.122 476.36 172.533C476.36 178.944 477.416 184.487 479.528 189.163C481.64 193.763 484.657 197.308 488.578 199.797C492.5 202.21 497.138 203.417 502.493 203.417C508.451 203.417 513.165 202.097 516.634 199.458C520.179 196.743 522.517 193.085 523.648 188.484H536.092C534.508 196.328 530.813 202.474 525.006 206.924C519.274 211.298 511.77 213.485 502.493 213.485ZM573.949 213.485C568.594 213.485 563.767 212.241 559.468 209.752C555.245 207.263 551.889 203.794 549.4 199.344C546.986 194.819 545.78 189.615 545.78 183.733C545.78 177.699 547.024 172.458 549.513 168.008C552.002 163.483 555.396 159.976 559.694 157.487C563.993 154.998 568.82 153.754 574.175 153.754C579.605 153.754 584.432 154.998 588.655 157.487C592.879 159.976 596.197 163.445 598.61 167.895C601.099 172.345 602.344 177.586 602.344 183.62C602.344 189.653 601.099 194.895 598.61 199.344C596.197 203.794 592.841 207.263 588.542 209.752C584.243 212.241 579.379 213.485 573.949 213.485ZM573.949 203.756C577.041 203.756 579.831 203.002 582.32 201.494C584.884 199.986 586.921 197.761 588.429 194.819C590.013 191.803 590.805 188.069 590.805 183.62C590.805 179.17 590.05 175.474 588.542 172.533C587.034 169.516 584.997 167.254 582.433 165.745C579.944 164.237 577.192 163.483 574.175 163.483C571.158 163.483 568.368 164.237 565.803 165.745C563.239 167.254 561.165 169.516 559.581 172.533C558.073 175.474 557.319 179.17 557.319 183.62C557.319 188.069 558.073 191.803 559.581 194.819C561.165 197.761 563.201 199.986 565.69 201.494C568.254 203.002 571.007 203.756 573.949 203.756ZM614.52 212.128V155.111H624.702L625.493 163.143C627.303 160.202 629.717 157.902 632.734 156.243C635.75 154.583 639.144 153.754 642.915 153.754C645.781 153.754 648.383 154.169 650.721 154.998C653.059 155.752 655.133 156.921 656.943 158.505C658.753 160.089 660.224 162.05 661.355 164.388C663.391 161.069 666.106 158.467 669.5 156.582C672.97 154.697 676.627 153.754 680.474 153.754C685.074 153.754 689.034 154.697 692.352 156.582C695.671 158.392 698.197 161.145 699.932 164.84C701.666 168.46 702.534 172.986 702.534 178.416V212.128H691.334V179.547C691.334 174.268 690.24 170.271 688.053 167.555C685.942 164.84 682.812 163.483 678.664 163.483C675.873 163.483 673.384 164.199 671.197 165.632C669.01 167.065 667.275 169.139 665.993 171.854C664.787 174.569 664.183 177.888 664.183 181.81V212.128H652.87V179.547C652.87 174.268 651.777 170.271 649.59 167.555C647.478 164.84 644.348 163.483 640.2 163.483C637.56 163.483 635.147 164.199 632.96 165.632C630.773 167.065 629.038 169.139 627.756 171.854C626.474 174.569 625.833 177.888 625.833 181.81V212.128H614.52ZM716.022 212.128V155.111H726.203L726.995 163.143C728.805 160.202 731.218 157.902 734.235 156.243C737.252 154.583 740.646 153.754 744.417 153.754C747.283 153.754 749.885 154.169 752.223 154.998C754.561 155.752 756.635 156.921 758.445 158.505C760.255 160.089 761.725 162.05 762.857 164.388C764.893 161.069 767.608 158.467 771.002 156.582C774.471 154.697 778.129 153.754 781.975 153.754C786.576 153.754 790.535 154.697 793.854 156.582C797.172 158.392 799.699 161.145 801.433 164.84C803.168 168.46 804.035 172.986 804.035 178.416V212.128H792.836V179.547C792.836 174.268 791.742 170.271 789.555 167.555C787.443 164.84 784.313 163.483 780.165 163.483C777.375 163.483 774.886 164.199 772.699 165.632C770.512 167.065 768.777 169.139 767.495 171.854C766.288 174.569 765.685 177.888 765.685 181.81V212.128H754.372V179.547C754.372 174.268 753.278 170.271 751.091 167.555C748.98 164.84 745.85 163.483 741.702 163.483C739.062 163.483 736.649 164.199 734.461 165.632C732.274 167.065 730.54 169.139 729.258 171.854C727.975 174.569 727.334 177.888 727.334 181.81V212.128H716.022ZM838.452 213.485C834.002 213.485 830.118 212.58 826.8 210.77C823.557 208.96 821.03 206.245 819.22 202.625C817.485 199.005 816.618 194.442 816.618 188.937V155.111H827.931V187.692C827.931 193.047 829.1 197.082 831.438 199.797C833.776 202.512 837.132 203.87 841.506 203.87C844.448 203.87 847.087 203.153 849.425 201.72C851.839 200.287 853.724 198.213 855.082 195.498C856.439 192.783 857.118 189.465 857.118 185.543V155.111H868.431V212.128H858.362L857.57 202.399C855.836 205.868 853.309 208.583 849.991 210.544C846.672 212.505 842.826 213.485 838.452 213.485ZM882.788 212.128V155.111H892.97L893.649 164.84C895.459 161.447 898.023 158.769 901.341 156.808C904.66 154.772 908.468 153.754 912.767 153.754C917.292 153.754 921.176 154.659 924.419 156.469C927.662 158.279 930.189 161.032 931.999 164.727C933.809 168.347 934.714 172.91 934.714 178.416V212.128H923.401V179.547C923.401 174.268 922.232 170.271 919.894 167.555C917.556 164.84 914.163 163.483 909.713 163.483C906.771 163.483 904.132 164.199 901.794 165.632C899.456 166.99 897.57 169.026 896.137 171.741C894.78 174.456 894.101 177.775 894.101 181.696V212.128H882.788ZM948.845 212.128V155.111H960.158V212.128H948.845ZM954.615 144.364C952.428 144.364 950.618 143.685 949.185 142.328C947.827 140.97 947.149 139.236 947.149 137.124C947.149 135.088 947.827 133.428 949.185 132.146C950.618 130.789 952.428 130.11 954.615 130.11C956.727 130.11 958.499 130.789 959.932 132.146C961.365 133.428 962.081 135.088 962.081 137.124C962.081 139.236 961.365 140.97 959.932 142.328C958.499 143.685 956.727 144.364 954.615 144.364ZM998.622 212.128C995.077 212.128 991.985 211.562 989.345 210.431C986.706 209.3 984.669 207.414 983.236 204.775C981.803 202.135 981.087 198.553 981.087 194.027V164.727H971.245V155.111H981.087L982.445 140.857H992.4V155.111H1008.58V164.727H992.4V194.141C992.4 197.384 993.079 199.608 994.436 200.815C995.794 201.946 998.132 202.512 1001.45 202.512H1008.01V212.128H998.622ZM1026.48 237.016L1040.4 205.793H1037.12L1014.6 155.111H1026.82L1044.7 196.516L1062.68 155.111H1074.56L1038.36 237.016H1026.48ZM1146.53 213.485C1138.76 213.485 1132.05 211.789 1126.39 208.395C1120.81 204.925 1116.47 200.136 1113.38 194.027C1110.36 187.843 1108.86 180.678 1108.86 172.533C1108.86 164.463 1110.36 157.336 1113.38 151.152C1116.47 144.968 1120.81 140.178 1126.39 136.785C1132.05 133.315 1138.76 131.581 1146.53 131.581C1155.8 131.581 1163.31 133.806 1169.04 138.255C1174.85 142.705 1178.54 148.965 1180.13 157.035H1167.68C1166.55 152.359 1164.21 148.625 1160.67 145.835C1157.2 143.044 1152.49 141.649 1146.53 141.649C1141.17 141.649 1136.54 142.894 1132.61 145.382C1128.69 147.871 1125.67 151.416 1123.56 156.016C1121.45 160.617 1120.4 166.122 1120.4 172.533C1120.4 178.944 1121.45 184.487 1123.56 189.163C1125.67 193.763 1128.69 197.308 1132.61 199.797C1136.54 202.21 1141.17 203.417 1146.53 203.417C1152.49 203.417 1157.2 202.097 1160.67 199.458C1164.21 196.743 1166.55 193.085 1167.68 188.484H1180.13C1178.54 196.328 1174.85 202.474 1169.04 206.924C1163.31 211.298 1155.8 213.485 1146.53 213.485ZM1191.96 212.128V130.676H1203.28V164.388C1205.16 161.069 1207.76 158.467 1211.08 156.582C1214.48 154.697 1218.21 153.754 1222.28 153.754C1226.81 153.754 1230.69 154.697 1233.93 156.582C1237.18 158.392 1239.67 161.145 1241.4 164.84C1243.14 168.46 1244 173.023 1244 178.529V212.128H1232.8V179.773C1232.8 174.419 1231.67 170.384 1229.41 167.669C1227.15 164.878 1223.79 163.483 1219.34 163.483C1216.32 163.483 1213.61 164.199 1211.2 165.632C1208.78 167.065 1206.86 169.177 1205.43 171.967C1203.99 174.683 1203.28 178.001 1203.28 181.923V212.128H1191.96ZM1276.23 213.485C1271.56 213.485 1267.67 212.694 1264.58 211.11C1261.49 209.526 1259.19 207.414 1257.68 204.775C1256.17 202.06 1255.42 199.156 1255.42 196.064C1255.42 192.293 1256.4 189.087 1258.36 186.448C1260.32 183.733 1263.11 181.659 1266.73 180.226C1270.35 178.793 1274.69 178.076 1279.74 178.076H1294.56C1294.56 174.758 1294.07 172.005 1293.09 169.818C1292.11 167.631 1290.64 166.009 1288.68 164.953C1286.79 163.822 1284.38 163.257 1281.44 163.257C1278.04 163.257 1275.14 164.086 1272.73 165.745C1270.31 167.329 1268.8 169.705 1268.2 172.872H1256.89C1257.34 168.875 1258.7 165.481 1260.96 162.691C1263.3 159.825 1266.28 157.638 1269.9 156.129C1273.52 154.546 1277.36 153.754 1281.44 153.754C1286.79 153.754 1291.28 154.697 1294.9 156.582C1298.52 158.467 1301.23 161.145 1303.04 164.614C1304.93 168.008 1305.87 172.081 1305.87 176.832V212.128H1296.03L1295.12 202.512C1294.29 204.02 1293.31 205.453 1292.18 206.811C1291.05 208.168 1289.69 209.337 1288.11 210.318C1286.6 211.298 1284.83 212.053 1282.79 212.58C1280.83 213.184 1278.65 213.485 1276.23 213.485ZM1278.38 204.322C1280.79 204.322 1282.98 203.832 1284.94 202.851C1286.9 201.871 1288.56 200.551 1289.92 198.892C1291.35 197.157 1292.41 195.234 1293.09 193.122C1293.84 190.935 1294.26 188.71 1294.33 186.448V186.108H1280.87C1277.63 186.108 1274.99 186.523 1272.95 187.353C1270.99 188.107 1269.56 189.163 1268.65 190.52C1267.75 191.878 1267.29 193.462 1267.29 195.272C1267.29 197.157 1267.71 198.779 1268.54 200.136C1269.44 201.418 1270.73 202.437 1272.39 203.191C1274.04 203.945 1276.04 204.322 1278.38 204.322ZM1341.38 212.128C1337.84 212.128 1334.75 211.562 1332.11 210.431C1329.47 209.3 1327.43 207.414 1326 204.775C1324.56 202.135 1323.85 198.553 1323.85 194.027V164.727H1314.01V155.111H1323.85L1325.21 140.857H1335.16V155.111H1351.34V164.727H1335.16V194.141C1335.16 197.384 1335.84 199.608 1337.2 200.815C1338.55 201.946 1340.89 202.512 1344.21 202.512H1350.77V212.128H1341.38Z" fill="white"/>
<circle cx="181.527" cy="181.579" r="149.328" fill="url(#paint1_linear_2001_94)"/>
<path d="M131.752 131.804H206.417V192.247H151.307L131.752 211.802V131.804Z" stroke="#0F0627" stroke-width="10.6664"/>
<path d="M231.3 154.916V233.136L215.301 217.136H161.969" stroke="#0F0627" stroke-width="10.6664"/>
<defs>
<filter id="filter0_b_2001_94" x="-310.803" y="-310.753" width="2242.65" height="984.668" filterUnits="userSpaceOnUse" color-interpolation-filters="sRGB">
<feFlood flood-opacity="0" result="BackgroundImageFix"/>
<feGaussianBlur in="BackgroundImageFix" stdDeviation="155.664"/>
<feComposite in2="SourceAlpha" operator="in" result="effect1_backgroundBlur_2001_94"/>
<feBlend mode="normal" in="SourceGraphic" in2="effect1_backgroundBlur_2001_94" result="shape"/>
</filter>
<linearGradient id="paint0_linear_2001_94" x1="810.523" y1="391.999" x2="690.277" y2="-121.033" gradientUnits="userSpaceOnUse">
<stop stop-color="#666666" stop-opacity="0"/>
<stop offset="1" stop-color="#666666"/>
</linearGradient>
<linearGradient id="paint1_linear_2001_94" x1="301.077" y1="286.561" x2="89.2924" y2="74.7757" gradientUnits="userSpaceOnUse">
<stop stop-color="#DE864B"/>
<stop offset="1" stop-color="#FFDAB5"/>
</linearGradient>
</defs>
</svg>
