<svg width="1621" height="363" viewBox="0 0 1621 363" fill="none" xmlns="http://www.w3.org/2000/svg">
<g filter="url(#filter0_b_2001_95)">
<rect x="0.128906" y="0.512695" width="1619.99" height="362.01" rx="181.005" fill="black" fill-opacity="0.3"/>
<rect x="2.39147" y="2.77526" width="1615.47" height="357.485" rx="178.742" stroke="url(#paint0_linear_2001_95)" stroke-width="4.52513"/>
</g>
<path d="M562.112 212.065V145.659L548.31 149.166V140.681L566.298 132.875H573.651V212.065H562.112ZM593.01 212.631C590.823 212.631 589.013 211.952 587.58 210.594C586.222 209.161 585.543 207.464 585.543 205.504C585.543 203.467 586.222 201.77 587.58 200.413C589.013 198.98 590.823 198.263 593.01 198.263C595.197 198.263 596.969 198.98 598.327 200.413C599.684 201.77 600.363 203.467 600.363 205.504C600.363 207.464 599.684 209.161 598.327 210.594C596.969 211.952 595.197 212.631 593.01 212.631ZM593.01 168.058C590.823 168.058 589.013 167.379 587.58 166.022C586.222 164.589 585.543 162.892 585.543 160.931C585.543 158.895 586.222 157.198 587.58 155.84C589.013 154.407 590.823 153.691 593.01 153.691C595.197 153.691 596.969 154.407 598.327 155.84C599.684 157.198 600.363 158.895 600.363 160.931C600.363 162.892 599.684 164.589 598.327 166.022C596.969 167.379 595.197 168.058 593.01 168.058ZM621.606 212.065V145.659L607.804 149.166V140.681L625.791 132.875H633.145V212.065H621.606ZM676.358 212.065V132.875H689.707L716.518 186.385L743.217 132.875H756.679V212.065H745.366V152.673L720.817 200.978H712.106L687.671 152.786V212.065H676.358ZM797.232 213.422C791.802 213.422 786.975 212.178 782.751 209.689C778.528 207.2 775.21 203.731 772.796 199.281C770.458 194.832 769.289 189.666 769.289 183.783C769.289 177.749 770.458 172.508 772.796 168.058C775.21 163.533 778.528 160.026 782.751 157.537C786.975 154.973 791.877 153.691 797.458 153.691C803.039 153.691 807.828 154.935 811.825 157.424C815.823 159.913 818.915 163.231 821.102 167.379C823.289 171.452 824.383 175.977 824.383 180.955C824.383 181.709 824.345 182.538 824.269 183.444C824.269 184.273 824.232 185.216 824.156 186.272H777.548V178.24H813.07C812.843 173.488 811.26 169.793 808.318 167.153C805.377 164.438 801.719 163.08 797.345 163.08C794.253 163.08 791.425 163.797 788.86 165.23C786.296 166.587 784.222 168.624 782.638 171.339C781.13 173.978 780.376 177.335 780.376 181.407V184.575C780.376 188.798 781.13 192.381 782.638 195.322C784.222 198.188 786.296 200.375 788.86 201.883C791.425 203.316 794.215 204.033 797.232 204.033C800.852 204.033 803.831 203.241 806.169 201.657C808.507 200.073 810.242 197.924 811.373 195.209H822.686C821.705 198.678 820.046 201.808 817.708 204.598C815.37 207.314 812.466 209.463 808.997 211.047C805.603 212.631 801.682 213.422 797.232 213.422ZM835.82 212.065V155.048H846.002L846.68 164.777C848.49 161.384 851.055 158.706 854.373 156.745C857.691 154.709 861.5 153.691 865.799 153.691C870.324 153.691 874.208 154.596 877.451 156.406C880.694 158.216 883.221 160.969 885.031 164.664C886.841 168.284 887.746 172.847 887.746 178.353V212.065H876.433V179.484C876.433 174.205 875.264 170.208 872.926 167.492C870.588 164.777 867.194 163.42 862.745 163.42C859.803 163.42 857.164 164.136 854.826 165.569C852.488 166.927 850.602 168.963 849.169 171.678C847.812 174.393 847.133 177.712 847.133 181.633V212.065H835.82ZM924.503 212.065C920.958 212.065 917.866 211.499 915.226 210.368C912.587 209.237 910.55 207.351 909.117 204.712C907.684 202.072 906.968 198.49 906.968 193.964V164.664H897.126V155.048H906.968L908.325 140.794H918.281V155.048H934.458V164.664H918.281V194.078C918.281 197.321 918.959 199.545 920.317 200.752C921.675 201.883 924.013 202.449 927.331 202.449H933.892V212.065H924.503ZM970.275 213.422C964.92 213.422 960.093 212.178 955.794 209.689C951.571 207.2 948.215 203.731 945.726 199.281C943.312 194.756 942.106 189.552 942.106 183.67C942.106 177.636 943.35 172.395 945.839 167.945C948.328 163.42 951.722 159.913 956.02 157.424C960.319 154.935 965.146 153.691 970.501 153.691C975.931 153.691 980.758 154.935 984.981 157.424C989.205 159.913 992.523 163.382 994.936 167.832C997.425 172.282 998.67 177.523 998.67 183.557C998.67 189.59 997.425 194.832 994.936 199.281C992.523 203.731 989.167 207.2 984.868 209.689C980.569 212.178 975.705 213.422 970.275 213.422ZM970.275 203.693C973.367 203.693 976.157 202.939 978.646 201.431C981.21 199.923 983.247 197.698 984.755 194.756C986.339 191.74 987.131 188.006 987.131 183.557C987.131 179.107 986.376 175.411 984.868 172.47C983.36 169.453 981.323 167.191 978.759 165.682C976.27 164.174 973.518 163.42 970.501 163.42C967.484 163.42 964.694 164.174 962.129 165.682C959.565 167.191 957.491 169.453 955.907 172.47C954.399 175.411 953.645 179.107 953.645 183.557C953.645 188.006 954.399 191.74 955.907 194.756C957.491 197.698 959.527 199.923 962.016 201.431C964.58 202.939 967.333 203.693 970.275 203.693ZM1010.85 212.065V155.048H1021.03L1022.05 165.796C1023.33 163.231 1024.99 161.082 1027.02 159.347C1029.06 157.537 1031.44 156.142 1034.15 155.161C1036.94 154.181 1040.11 153.691 1043.65 153.691V165.682H1039.58C1037.24 165.682 1035.02 165.984 1032.91 166.587C1030.79 167.115 1028.91 168.058 1027.25 169.416C1025.67 170.773 1024.42 172.621 1023.52 174.959C1022.61 177.297 1022.16 180.201 1022.16 183.67V212.065H1010.85ZM1053.7 212.065V155.048H1065.02V212.065H1053.7ZM1059.47 144.301C1057.29 144.301 1055.48 143.622 1054.04 142.265C1052.68 140.907 1052.01 139.173 1052.01 137.061C1052.01 135.025 1052.68 133.365 1054.04 132.083C1055.48 130.726 1057.29 130.047 1059.47 130.047C1061.58 130.047 1063.36 130.726 1064.79 132.083C1066.22 133.365 1066.94 135.025 1066.94 137.061C1066.94 139.173 1066.22 140.907 1064.79 142.265C1063.36 143.622 1061.58 144.301 1059.47 144.301ZM1080.06 212.065V155.048H1090.24L1090.92 164.777C1092.73 161.384 1095.3 158.706 1098.61 156.745C1101.93 154.709 1105.74 153.691 1110.04 153.691C1114.57 153.691 1118.45 154.596 1121.69 156.406C1124.94 158.216 1127.46 160.969 1129.27 164.664C1131.08 168.284 1131.99 172.847 1131.99 178.353V212.065H1120.67V179.484C1120.67 174.205 1119.51 170.208 1117.17 167.492C1114.83 164.777 1111.44 163.42 1106.99 163.42C1104.05 163.42 1101.41 164.136 1099.07 165.569C1096.73 166.927 1094.84 168.963 1093.41 171.678C1092.05 174.393 1091.37 177.712 1091.37 181.633V212.065H1080.06ZM1168.52 238.311C1163.31 238.311 1158.71 237.632 1154.72 236.274C1150.72 234.992 1147.63 232.994 1145.44 230.279C1143.25 227.563 1142.16 224.245 1142.16 220.323C1142.16 218.287 1142.61 216.213 1143.52 214.101C1144.42 212.065 1145.89 210.104 1147.93 208.219C1149.97 206.333 1152.72 204.636 1156.19 203.128L1162.52 208.219C1158.68 209.652 1156.07 211.348 1154.72 213.309C1153.43 215.346 1152.79 217.307 1152.79 219.192C1152.79 221.455 1153.47 223.34 1154.83 224.848C1156.19 226.357 1158.04 227.488 1160.37 228.242C1162.79 228.996 1165.5 229.374 1168.52 229.374C1171.46 229.374 1174.02 228.959 1176.21 228.129C1178.4 227.3 1180.1 226.131 1181.3 224.622C1182.51 223.114 1183.11 221.341 1183.11 219.305C1183.11 216.892 1182.21 214.855 1180.4 213.196C1178.59 211.612 1175.12 210.67 1169.99 210.368C1165.69 210.066 1162.03 209.652 1159.02 209.124C1156.07 208.596 1153.55 207.955 1151.44 207.2C1149.4 206.446 1147.67 205.617 1146.23 204.712C1144.87 203.807 1143.71 202.864 1142.73 201.883V199.281L1154.04 187.629L1163.2 190.797L1150.87 202.223L1153.25 197.132C1154.08 197.66 1154.87 198.188 1155.62 198.716C1156.38 199.168 1157.39 199.583 1158.68 199.96C1159.96 200.337 1161.69 200.677 1163.88 200.978C1166.07 201.28 1168.93 201.582 1172.48 201.883C1177.61 202.261 1181.72 203.166 1184.81 204.598C1187.98 206.031 1190.28 207.955 1191.71 210.368C1193.14 212.781 1193.86 215.647 1193.86 218.966C1193.86 222.209 1192.95 225.301 1191.14 228.242C1189.41 231.184 1186.66 233.597 1182.89 235.482C1179.19 237.368 1174.4 238.311 1168.52 238.311ZM1168.52 194.53C1163.69 194.53 1159.58 193.625 1156.19 191.815C1152.87 190.005 1150.3 187.554 1148.49 184.462C1146.76 181.37 1145.89 177.938 1145.89 174.167C1145.89 170.321 1146.76 166.889 1148.49 163.872C1150.3 160.78 1152.91 158.329 1156.3 156.519C1159.69 154.634 1163.77 153.691 1168.52 153.691C1173.27 153.691 1177.3 154.634 1180.62 156.519C1184.02 158.329 1186.58 160.78 1188.32 163.872C1190.13 166.889 1191.03 170.321 1191.03 174.167C1191.03 177.938 1190.13 181.37 1188.32 184.462C1186.58 187.554 1184.02 190.005 1180.62 191.815C1177.3 193.625 1173.27 194.53 1168.52 194.53ZM1168.52 185.48C1172.21 185.48 1175.16 184.537 1177.34 182.652C1179.53 180.691 1180.62 177.863 1180.62 174.167C1180.62 170.471 1179.53 167.681 1177.34 165.796C1175.16 163.835 1172.21 162.854 1168.52 162.854C1164.82 162.854 1161.84 163.835 1159.58 165.796C1157.32 167.681 1156.19 170.471 1156.19 174.167C1156.19 177.863 1157.32 180.691 1159.58 182.652C1161.84 184.537 1164.82 185.48 1168.52 185.48ZM1177.79 163.985L1175.08 155.048H1198.5V162.854L1177.79 163.985Z" fill="white"/>
<circle cx="181.132" cy="181.516" r="149.328" fill="url(#paint1_linear_2001_95)"/>
<path fill-rule="evenodd" clip-rule="evenodd" d="M204.835 127.216H151.892V222.809H235.433V156.018L204.835 127.216ZM164.423 211.779V138.246H199.397L222.902 160.372V211.779H164.423ZM139.361 149.276H126.83V244.869H202.017V233.839H139.361V149.276Z" fill="#0F0627"/>
<defs>
<filter id="filter0_b_2001_95" x="-311.2" y="-310.816" width="2242.65" height="984.668" filterUnits="userSpaceOnUse" color-interpolation-filters="sRGB">
<feFlood flood-opacity="0" result="BackgroundImageFix"/>
<feGaussianBlur in="BackgroundImageFix" stdDeviation="155.664"/>
<feComposite in2="SourceAlpha" operator="in" result="effect1_backgroundBlur_2001_95"/>
<feBlend mode="normal" in="SourceGraphic" in2="effect1_backgroundBlur_2001_95" result="shape"/>
</filter>
<linearGradient id="paint0_linear_2001_95" x1="810.126" y1="391.936" x2="689.88" y2="-121.096" gradientUnits="userSpaceOnUse">
<stop stop-color="#666666" stop-opacity="0"/>
<stop offset="1" stop-color="#666666"/>
</linearGradient>
<linearGradient id="paint1_linear_2001_95" x1="300.683" y1="286.498" x2="88.8979" y2="74.7132" gradientUnits="userSpaceOnUse">
<stop stop-color="#DE864B"/>
<stop offset="1" stop-color="#FFDAB5"/>
</linearGradient>
</defs>
</svg>
