<svg width="1621" height="363" viewBox="0 0 1621 363" fill="none" xmlns="http://www.w3.org/2000/svg">
<g filter="url(#filter0_b_2001_98)">
<rect x="0.525391" y="0.512695" width="1619.99" height="362.01" rx="181.005" fill="black" fill-opacity="0.3"/>
<rect x="2.78795" y="2.77526" width="1615.47" height="357.485" rx="178.742" stroke="url(#paint0_linear_2001_98)" stroke-width="4.52513"/>
</g>
<path d="M462.808 213.422C455.04 213.422 448.327 211.726 442.671 208.332C437.09 204.862 432.753 200.073 429.661 193.964C426.644 187.78 425.136 180.615 425.136 172.47C425.136 164.4 426.644 157.273 429.661 151.089C432.753 144.905 437.09 140.115 442.671 136.722C448.327 133.252 455.04 131.518 462.808 131.518C472.084 131.518 479.588 133.743 485.32 138.192C491.127 142.642 494.823 148.902 496.407 156.972H483.963C482.831 152.296 480.493 148.562 476.949 145.772C473.479 142.981 468.766 141.586 462.808 141.586C457.453 141.586 452.815 142.831 448.893 145.319C444.971 147.808 441.954 151.353 439.843 155.953C437.731 160.554 436.675 166.059 436.675 172.47C436.675 178.881 437.731 184.424 439.843 189.1C441.954 193.7 444.971 197.245 448.893 199.734C452.815 202.147 457.453 203.354 462.808 203.354C468.766 203.354 473.479 202.034 476.949 199.395C480.493 196.68 482.831 193.022 483.963 188.421H496.407C494.823 196.265 491.127 202.411 485.32 206.861C479.588 211.235 472.084 213.422 462.808 213.422ZM508.244 212.065V130.613H519.556V164.325C521.442 161.006 524.044 158.404 527.362 156.519C530.756 154.634 534.489 153.691 538.562 153.691C543.087 153.691 546.971 154.634 550.214 156.519C553.457 158.329 555.946 161.082 557.681 164.777C559.415 168.397 560.283 172.96 560.283 178.466V212.065H549.083V179.71C549.083 174.356 547.952 170.321 545.689 167.606C543.426 164.815 540.07 163.42 535.621 163.42C532.604 163.42 529.889 164.136 527.475 165.569C525.062 167.002 523.139 169.114 521.706 171.904C520.273 174.62 519.556 177.938 519.556 181.86V212.065H508.244ZM592.512 213.422C587.836 213.422 583.952 212.631 580.859 211.047C577.767 209.463 575.467 207.351 573.959 204.712C572.45 201.997 571.696 199.093 571.696 196.001C571.696 192.23 572.677 189.025 574.637 186.385C576.598 183.67 579.389 181.596 583.009 180.163C586.629 178.73 590.966 178.013 596.019 178.013H610.838C610.838 174.695 610.348 171.942 609.368 169.755C608.387 167.568 606.917 165.946 604.956 164.891C603.07 163.759 600.657 163.194 597.716 163.194C594.322 163.194 591.418 164.023 589.005 165.682C586.591 167.266 585.083 169.642 584.48 172.809H573.167C573.619 168.812 574.977 165.418 577.239 162.628C579.577 159.762 582.556 157.575 586.177 156.067C589.797 154.483 593.643 153.691 597.716 153.691C603.07 153.691 607.558 154.634 611.178 156.519C614.798 158.404 617.513 161.082 619.323 164.551C621.209 167.945 622.151 172.018 622.151 176.769V212.065H612.309L611.404 202.449C610.574 203.957 609.594 205.39 608.463 206.748C607.331 208.105 605.974 209.274 604.39 210.255C602.882 211.235 601.109 211.99 599.073 212.517C597.112 213.121 594.925 213.422 592.512 213.422ZM594.661 204.259C597.075 204.259 599.262 203.769 601.223 202.788C603.183 201.808 604.843 200.488 606.2 198.829C607.633 197.094 608.689 195.171 609.368 193.059C610.122 190.872 610.537 188.647 610.612 186.385V186.045H597.15C593.907 186.045 591.267 186.46 589.231 187.29C587.27 188.044 585.837 189.1 584.932 190.457C584.027 191.815 583.575 193.399 583.575 195.209C583.575 197.094 583.989 198.716 584.819 200.073C585.724 201.355 587.006 202.374 588.665 203.128C590.325 203.882 592.323 204.259 594.661 204.259ZM657.662 212.065C654.117 212.065 651.025 211.499 648.386 210.368C645.746 209.237 643.71 207.351 642.277 204.712C640.844 202.072 640.127 198.49 640.127 193.964V164.664H630.285V155.048H640.127L641.485 140.794H651.44V155.048H667.617V164.664H651.44V194.078C651.44 197.321 652.119 199.545 653.476 200.752C654.834 201.883 657.172 202.449 660.49 202.449H667.052V212.065H657.662ZM718.314 212.065L701.571 155.048H712.77L725.215 202.562L723.065 202.449L736.867 155.048H749.537L763.339 202.449L761.189 202.562L773.52 155.048H784.946L768.203 212.065H756.551L742.071 162.628H744.333L729.853 212.065H718.314ZM794.817 212.065V155.048H806.129V212.065H794.817ZM800.586 144.301C798.399 144.301 796.589 143.622 795.156 142.265C793.798 140.907 793.12 139.173 793.12 137.061C793.12 135.025 793.798 133.365 795.156 132.083C796.589 130.726 798.399 130.047 800.586 130.047C802.698 130.047 804.47 130.726 805.903 132.083C807.336 133.365 808.053 135.025 808.053 137.061C808.053 139.173 807.336 140.907 805.903 142.265C804.47 143.622 802.698 144.301 800.586 144.301ZM844.593 212.065C841.048 212.065 837.956 211.499 835.316 210.368C832.677 209.237 830.641 207.351 829.208 204.712C827.775 202.072 827.058 198.49 827.058 193.964V164.664H817.216V155.048H827.058L828.416 140.794H838.371V155.048H854.548V164.664H838.371V194.078C838.371 197.321 839.05 199.545 840.407 200.752C841.765 201.883 844.103 202.449 847.421 202.449H853.983V212.065H844.593ZM865.892 212.065V130.613H877.205V164.325C879.09 161.006 881.692 158.404 885.011 156.519C888.405 154.634 892.138 153.691 896.21 153.691C900.735 153.691 904.62 154.634 907.863 156.519C911.106 158.329 913.594 161.082 915.329 164.777C917.064 168.397 917.931 172.96 917.931 178.466V212.065H906.731V179.71C906.731 174.356 905.6 170.321 903.337 167.606C901.075 164.815 897.719 163.42 893.269 163.42C890.252 163.42 887.537 164.136 885.124 165.569C882.71 167.002 880.787 169.114 879.354 171.904C877.921 174.62 877.205 177.938 877.205 181.86V212.065H865.892ZM959.647 212.065V132.875H1008.86V142.152H970.96V167.832H1002.64V176.882H970.96V212.065H959.647ZM1042.63 213.422C1037.28 213.422 1032.45 212.178 1028.15 209.689C1023.93 207.2 1020.57 203.731 1018.08 199.281C1015.67 194.756 1014.46 189.552 1014.46 183.67C1014.46 177.636 1015.71 172.395 1018.2 167.945C1020.69 163.42 1024.08 159.913 1028.38 157.424C1032.68 154.935 1037.5 153.691 1042.86 153.691C1048.29 153.691 1053.12 154.935 1057.34 157.424C1061.56 159.913 1064.88 163.382 1067.29 167.832C1069.78 172.282 1071.03 177.523 1071.03 183.557C1071.03 189.59 1069.78 194.832 1067.29 199.281C1064.88 203.731 1061.52 207.2 1057.23 209.689C1052.93 212.178 1048.06 213.422 1042.63 213.422ZM1042.63 203.693C1045.72 203.693 1048.52 202.939 1051 201.431C1053.57 199.923 1055.6 197.698 1057.11 194.756C1058.7 191.74 1059.49 188.006 1059.49 183.557C1059.49 179.107 1058.73 175.411 1057.23 172.47C1055.72 169.453 1053.68 167.191 1051.12 165.682C1048.63 164.174 1045.88 163.42 1042.86 163.42C1039.84 163.42 1037.05 164.174 1034.49 165.682C1031.92 167.191 1029.85 169.453 1028.27 172.47C1026.76 175.411 1026 179.107 1026 183.557C1026 188.006 1026.76 191.74 1028.27 194.756C1029.85 197.698 1031.89 199.923 1034.37 201.431C1036.94 202.939 1039.69 203.693 1042.63 203.693ZM1104.13 213.422C1099.68 213.422 1095.8 212.517 1092.48 210.707C1089.24 208.897 1086.71 206.182 1084.9 202.562C1083.17 198.942 1082.3 194.379 1082.3 188.874V155.048H1093.61V187.629C1093.61 192.984 1094.78 197.019 1097.12 199.734C1099.46 202.449 1102.81 203.807 1107.19 203.807C1110.13 203.807 1112.77 203.09 1115.11 201.657C1117.52 200.224 1119.41 198.15 1120.76 195.435C1122.12 192.72 1122.8 189.402 1122.8 185.48V155.048H1134.11V212.065H1124.04L1123.25 202.336C1121.52 205.805 1118.99 208.52 1115.67 210.481C1112.35 212.442 1108.51 213.422 1104.13 213.422ZM1148.47 212.065V155.048H1158.65L1159.33 164.777C1161.14 161.384 1163.7 158.706 1167.02 156.745C1170.34 154.709 1174.15 153.691 1178.45 153.691C1182.97 153.691 1186.86 154.596 1190.1 156.406C1193.34 158.216 1195.87 160.969 1197.68 164.664C1199.49 168.284 1200.4 172.847 1200.4 178.353V212.065H1189.08V179.484C1189.08 174.205 1187.91 170.208 1185.58 167.492C1183.24 164.777 1179.84 163.42 1175.39 163.42C1172.45 163.42 1169.81 164.136 1167.47 165.569C1165.14 166.927 1163.25 168.963 1161.82 171.678C1160.46 174.393 1159.78 177.712 1159.78 181.633V212.065H1148.47ZM1239.08 213.422C1233.65 213.422 1228.86 212.14 1224.71 209.576C1220.56 206.936 1217.32 203.392 1214.98 198.942C1212.72 194.417 1211.59 189.288 1211.59 183.557C1211.59 177.749 1212.72 172.621 1214.98 168.171C1217.32 163.722 1220.56 160.215 1224.71 157.65C1228.93 155.011 1233.76 153.691 1239.19 153.691C1243.64 153.691 1247.56 154.596 1250.95 156.406C1254.35 158.141 1256.99 160.629 1258.87 163.872V130.613H1270.19V212.065H1260.12L1258.87 203.241C1257.74 204.976 1256.27 206.635 1254.46 208.219C1252.65 209.727 1250.46 210.971 1247.9 211.952C1245.33 212.932 1242.39 213.422 1239.08 213.422ZM1240.89 203.58C1244.43 203.58 1247.56 202.751 1250.27 201.092C1252.99 199.432 1255.06 197.094 1256.5 194.078C1258.01 191.061 1258.76 187.554 1258.76 183.557C1258.76 179.559 1258.01 176.09 1256.5 173.149C1255.06 170.132 1252.99 167.794 1250.27 166.135C1247.56 164.4 1244.43 163.533 1240.89 163.533C1237.49 163.533 1234.44 164.4 1231.72 166.135C1229.01 167.794 1226.9 170.132 1225.39 173.149C1223.88 176.09 1223.12 179.559 1223.12 183.557C1223.12 187.554 1223.88 191.061 1225.39 194.078C1226.9 197.094 1229.01 199.432 1231.72 201.092C1234.44 202.751 1237.49 203.58 1240.89 203.58ZM1310.32 213.422C1304.89 213.422 1300.06 212.178 1295.84 209.689C1291.61 207.2 1288.29 203.731 1285.88 199.281C1283.54 194.832 1282.37 189.666 1282.37 183.783C1282.37 177.749 1283.54 172.508 1285.88 168.058C1288.29 163.533 1291.61 160.026 1295.84 157.537C1300.06 154.973 1304.96 153.691 1310.54 153.691C1316.12 153.691 1320.91 154.935 1324.91 157.424C1328.91 159.913 1332 163.231 1334.19 167.379C1336.37 171.452 1337.47 175.977 1337.47 180.955C1337.47 181.709 1337.43 182.538 1337.35 183.444C1337.35 184.273 1337.32 185.216 1337.24 186.272H1290.63V178.24H1326.15C1325.93 173.488 1324.34 169.793 1321.4 167.153C1318.46 164.438 1314.8 163.08 1310.43 163.08C1307.34 163.08 1304.51 163.797 1301.95 165.23C1299.38 166.587 1297.31 168.624 1295.72 171.339C1294.21 173.978 1293.46 177.335 1293.46 181.407V184.575C1293.46 188.798 1294.21 192.381 1295.72 195.322C1297.31 198.188 1299.38 200.375 1301.95 201.883C1304.51 203.316 1307.3 204.033 1310.32 204.033C1313.94 204.033 1316.92 203.241 1319.25 201.657C1321.59 200.073 1323.33 197.924 1324.46 195.209H1335.77C1334.79 198.678 1333.13 201.808 1330.79 204.598C1328.45 207.314 1325.55 209.463 1322.08 211.047C1318.69 212.631 1314.77 213.422 1310.32 213.422ZM1348.9 212.065V155.048H1359.09L1360.1 165.796C1361.39 163.231 1363.05 161.082 1365.08 159.347C1367.12 157.537 1369.49 156.142 1372.21 155.161C1375 154.181 1378.17 153.691 1381.71 153.691V165.682H1377.64C1375.3 165.682 1373.08 165.984 1370.96 166.587C1368.85 167.115 1366.97 168.058 1365.31 169.416C1363.72 170.773 1362.48 172.621 1361.58 174.959C1360.67 177.297 1360.22 180.201 1360.22 183.67V212.065H1348.9ZM1413.03 213.422C1408.2 213.422 1403.98 212.631 1400.36 211.047C1396.74 209.463 1393.87 207.238 1391.76 204.372C1389.65 201.506 1388.37 198.15 1387.92 194.304H1399.45C1399.83 196.114 1400.55 197.773 1401.6 199.281C1402.74 200.79 1404.24 201.997 1406.13 202.902C1408.09 203.807 1410.39 204.259 1413.03 204.259C1415.52 204.259 1417.56 203.92 1419.14 203.241C1420.8 202.487 1422 201.506 1422.76 200.3C1423.51 199.017 1423.89 197.66 1423.89 196.227C1423.89 194.115 1423.36 192.531 1422.31 191.476C1421.33 190.344 1419.82 189.477 1417.78 188.874C1415.82 188.195 1413.44 187.592 1410.65 187.064C1408.01 186.611 1405.45 186.008 1402.96 185.254C1400.55 184.424 1398.36 183.406 1396.4 182.199C1394.51 180.992 1393.01 179.484 1391.88 177.674C1390.74 175.789 1390.18 173.488 1390.18 170.773C1390.18 167.53 1391.05 164.627 1392.78 162.062C1394.51 159.423 1396.97 157.386 1400.13 155.953C1403.38 154.445 1407.19 153.691 1411.56 153.691C1417.89 153.691 1422.99 155.199 1426.83 158.216C1430.68 161.233 1432.94 165.494 1433.62 170.999H1422.65C1422.34 168.435 1421.21 166.474 1419.25 165.117C1417.29 163.684 1414.69 162.967 1411.45 162.967C1408.2 162.967 1405.71 163.608 1403.98 164.891C1402.25 166.173 1401.38 167.87 1401.38 169.981C1401.38 171.339 1401.87 172.546 1402.85 173.601C1403.83 174.657 1405.26 175.562 1407.15 176.316C1409.11 176.995 1411.48 177.636 1414.27 178.24C1418.27 178.994 1421.85 179.937 1425.02 181.068C1428.19 182.199 1430.72 183.858 1432.6 186.045C1434.49 188.233 1435.43 191.362 1435.43 195.435C1435.5 198.98 1434.6 202.11 1432.71 204.825C1430.9 207.54 1428.3 209.652 1424.91 211.16C1421.59 212.668 1417.63 213.422 1413.03 213.422Z" fill="white"/>
<circle cx="181.527" cy="181.516" r="149.328" fill="url(#paint1_linear_2001_98)"/>
<path d="M225.141 181.45C213.769 192.822 195.332 192.822 183.96 181.45C172.589 170.079 172.589 151.641 183.96 140.27C195.332 128.898 213.769 128.898 225.141 140.27C236.512 151.641 236.512 170.079 225.141 181.45Z" stroke="#0F0627" stroke-width="12.4795"/>
<path d="M208.984 189.647L148.393 234.081L131.754 217.442L175.611 157.637" stroke="#0F0627" stroke-width="12.4795"/>
<defs>
<filter id="filter0_b_2001_98" x="-310.803" y="-310.816" width="2242.65" height="984.668" filterUnits="userSpaceOnUse" color-interpolation-filters="sRGB">
<feFlood flood-opacity="0" result="BackgroundImageFix"/>
<feGaussianBlur in="BackgroundImageFix" stdDeviation="155.664"/>
<feComposite in2="SourceAlpha" operator="in" result="effect1_backgroundBlur_2001_98"/>
<feBlend mode="normal" in="SourceGraphic" in2="effect1_backgroundBlur_2001_98" result="shape"/>
</filter>
<linearGradient id="paint0_linear_2001_98" x1="810.523" y1="391.936" x2="690.277" y2="-121.096" gradientUnits="userSpaceOnUse">
<stop stop-color="#666666" stop-opacity="0"/>
<stop offset="1" stop-color="#666666"/>
</linearGradient>
<linearGradient id="paint1_linear_2001_98" x1="301.077" y1="286.498" x2="89.2924" y2="74.7132" gradientUnits="userSpaceOnUse">
<stop stop-color="#DE864B"/>
<stop offset="1" stop-color="#FFDAB5"/>
</linearGradient>
</defs>
</svg>
