<svg width="83" height="83" viewBox="0 0 83 83" fill="none" xmlns="http://www.w3.org/2000/svg">
<circle cx="41.25" cy="41.25" r="40.5625" stroke="white" stroke-opacity="0.16" stroke-width="1.375"/>
<path d="M50.75 30.9999H56.2625L49.5 24.2374V29.7499C49.5 30.0814 49.6317 30.3994 49.8661 30.6338C50.1005 30.8682 50.4185 30.9999 50.75 30.9999Z" fill="#FF9838"/>
<path d="M50.75 33.5C49.7554 33.5 48.8016 33.1049 48.0983 32.4017C47.3951 31.6984 47 30.7446 47 29.75V23.5H33.25C32.2554 23.5 31.3016 23.8951 30.5983 24.5983C29.8951 25.3016 29.5 26.2554 29.5 27.25V31C31.4194 31.0045 33.297 31.5614 34.9085 32.604C36.5201 33.6467 37.7975 35.1311 38.5883 36.8801C39.3791 38.629 39.6498 40.5686 39.3682 42.4673C39.0865 44.3659 38.2644 46.1434 37 47.5875V57.25C37.0016 57.6769 36.9253 58.1005 36.775 58.5H53.25C54.2446 58.5 55.1984 58.1049 55.9016 57.4016C56.6049 56.6984 57 55.7446 57 54.75V33.5H50.75ZM38.25 32.25C38.25 31.9185 38.3817 31.6005 38.6161 31.3661C38.8505 31.1317 39.1685 31 39.5 31H43.25C43.5815 31 43.8995 31.1317 44.1339 31.3661C44.3683 31.6005 44.5 31.9185 44.5 32.25C44.5 32.5815 44.3683 32.8995 44.1339 33.1339C43.8995 33.3683 43.5815 33.5 43.25 33.5H39.5C39.1685 33.5 38.8505 33.3683 38.6161 33.1339C38.3817 32.8995 38.25 32.5815 38.25 32.25ZM50.75 52.25H40.75C40.4185 52.25 40.1005 52.1183 39.8661 51.8839C39.6317 51.6495 39.5 51.3315 39.5 51C39.5 50.6685 39.6317 50.3505 39.8661 50.1161C40.1005 49.8817 40.4185 49.75 40.75 49.75H50.75C51.0815 49.75 51.3995 49.8817 51.6339 50.1161C51.8683 50.3505 52 50.6685 52 51C52 51.3315 51.8683 51.6495 51.6339 51.8839C51.3995 52.1183 51.0815 52.25 50.75 52.25ZM50.75 46H43.25C42.9185 46 42.6005 45.8683 42.3661 45.6339C42.1317 45.3995 42 45.0815 42 44.75C42 44.4185 42.1317 44.1005 42.3661 43.8661C42.6005 43.6317 42.9185 43.5 43.25 43.5H50.75C51.0815 43.5 51.3995 43.6317 51.6339 43.8661C51.8683 44.1005 52 44.4185 52 44.75C52 45.0815 51.8683 45.3995 51.6339 45.6339C51.3995 45.8683 51.0815 46 50.75 46ZM50.75 39.75H43.25C42.9185 39.75 42.6005 39.6183 42.3661 39.3839C42.1317 39.1495 42 38.8315 42 38.5C42 38.1685 42.1317 37.8505 42.3661 37.6161C42.6005 37.3817 42.9185 37.25 43.25 37.25H50.75C51.0815 37.25 51.3995 37.3817 51.6339 37.6161C51.8683 37.8505 52 38.1685 52 38.5C52 38.8315 51.8683 39.1495 51.6339 39.3839C51.3995 39.6183 51.0815 39.75 50.75 39.75Z" fill="#FF9838"/>
<path d="M24.5 49.65V57.25C24.5012 57.4968 24.5755 57.7377 24.7134 57.9424C24.8513 58.147 25.0467 58.3062 25.275 58.4C25.5026 58.4957 25.7535 58.5219 25.996 58.4752C26.2385 58.4285 26.4617 58.311 26.6375 58.1375L29.5 55.2625L32.3625 58.1375C32.4793 58.2534 32.6178 58.345 32.7701 58.4072C32.9224 58.4694 33.0855 58.501 33.25 58.5C33.414 58.5042 33.5767 58.47 33.725 58.4C33.9533 58.3062 34.1487 58.147 34.2866 57.9424C34.4245 57.7377 34.4988 57.4968 34.5 57.25V49.65C32.9819 50.5339 31.2566 50.9995 29.5 50.9995C27.7434 50.9995 26.0181 50.5339 24.5 49.65Z" fill="#FF9838"/>
<path d="M29.5 48.5001C33.6421 48.5001 37 45.1423 37 41.0001C37 36.858 33.6421 33.5001 29.5 33.5001C25.3579 33.5001 22 36.858 22 41.0001C22 45.1423 25.3579 48.5001 29.5 48.5001Z" fill="#FF9838"/>
</svg>
