<svg width="84" height="83" viewBox="0 0 84 83" fill="none" xmlns="http://www.w3.org/2000/svg">
<circle cx="42" cy="41.25" r="40.5625" stroke="white" stroke-opacity="0.16" stroke-width="1.375"/>
<path d="M58.6202 55.5204C58.6202 55.5204 54.1762 47.8825 53.379 46.5127C54.286 46.236 55.2521 45.9917 55.6536 45.2985C56.3226 44.1436 55.1317 42.2489 55.4444 41.011C55.7665 39.7369 57.6681 38.6344 57.6681 37.3393C57.6681 36.0776 55.7021 34.6035 55.3798 33.3369C55.0649 32.0992 56.2522 30.2025 55.5811 29.0489C54.9099 27.8952 52.6743 27.99 51.754 27.1045C50.8071 26.1932 50.8101 23.9636 49.668 23.3529C48.5212 22.7399 46.6575 23.9787 45.3843 23.6853C44.1256 23.3952 43.001 21.5 41.6863 21.5C40.352 21.5 38.2298 23.6498 37.897 23.7271C36.6244 24.023 34.7583 22.7872 33.6128 23.4028C32.4718 24.0155 32.4788 26.2454 31.5337 27.1582C30.6149 28.0453 28.3792 27.9546 27.7101 29.1096C27.0411 30.2644 28.2319 32.1586 27.9193 33.3972C27.6059 34.6389 25.6381 35.8971 25.6381 37.3332C25.6381 38.6284 27.5444 39.7274 27.8685 41.0008C28.1835 42.2386 26.9962 44.135 27.6673 45.289C28.0327 45.9171 28.8618 46.175 29.6898 46.4229C29.7864 46.4518 29.9691 46.5599 29.8454 46.7402C29.2789 47.718 24.7198 55.5864 24.7198 55.5864C24.3571 56.2122 24.6516 56.7487 25.3741 56.7791L28.9105 56.9266C29.633 56.957 30.5393 57.482 30.9249 58.0937L32.812 61.0881C33.1976 61.6998 33.8095 61.6883 34.1721 61.0626C34.1721 61.0626 39.4521 51.9469 39.4542 51.9443C39.5602 51.8205 39.6666 51.8459 39.7176 51.8892C40.2953 52.3811 41.1007 52.8718 41.7728 52.8718C42.432 52.8718 43.0424 52.4099 43.6461 51.8947C43.6953 51.8528 43.8148 51.767 43.9023 51.9451C43.9037 51.948 49.1778 61.0138 49.1778 61.0138C49.5414 61.6387 50.1534 61.6493 50.5378 61.0369L52.4196 58.0389C52.8041 57.4268 53.7095 56.8998 54.4319 56.8683L57.968 56.7142C58.6902 56.6825 58.9837 56.1453 58.6202 55.5204ZM47.5306 47.3206C43.6206 49.5954 38.9273 49.3516 35.3425 47.0905C30.0898 43.7259 28.3615 36.7659 31.5192 31.3158C34.7129 25.8028 41.7334 23.8575 47.296 26.8871C47.3253 26.903 47.3542 26.9195 47.3832 26.9357C47.4244 26.9585 47.4655 26.9817 47.5065 27.0051C49.2226 27.9945 50.7107 29.4304 51.7763 31.262C55.033 36.86 53.1285 44.0639 47.5306 47.3206Z" fill="#FF9838"/>
<path d="M46.6372 28.6524C46.621 28.643 46.6045 28.6343 46.5883 28.625C43.6168 26.9052 39.8295 26.7795 36.6554 28.6262C31.9451 31.3665 30.3422 37.4279 33.0826 42.1381C33.9188 43.5755 35.0647 44.7229 36.3867 45.5463C36.4991 45.6175 36.6128 45.6875 36.729 45.7548C41.4444 48.4866 47.5026 46.8729 50.2343 42.1577C52.9659 37.4423 51.3526 31.3843 46.6372 28.6524ZM47.8168 36.361L46.1658 37.9703C45.6544 38.4686 45.3348 39.4524 45.4556 40.1563L45.8454 42.4287C45.9661 43.1325 45.5478 43.4365 44.9157 43.1042L42.8749 42.0312C42.2428 41.6989 41.2084 41.6989 40.5763 42.0312L38.5356 43.1042C37.9035 43.4365 37.4851 43.1325 37.6058 42.4287L37.9956 40.1563C38.1163 39.4524 37.7967 38.4686 37.2853 37.9703L35.6344 36.361C35.1229 35.8626 35.2828 35.3707 35.9895 35.2679L38.2711 34.9364C38.9777 34.8337 39.8146 34.2257 40.1306 33.5853L41.151 31.5179C41.467 30.8775 41.9843 30.8775 42.3002 31.5179L43.3207 33.5853C43.6367 34.2257 44.4735 34.8337 45.1803 34.9364L47.4618 35.2679C48.1684 35.3707 48.3282 35.8626 47.8168 36.361Z" fill="#FF9838"/>
</svg>
