<svg width="83" height="83" viewBox="0 0 83 83" fill="none" xmlns="http://www.w3.org/2000/svg">
<circle cx="41.375" cy="41.25" r="40.5625" stroke="white" stroke-opacity="0.16" stroke-width="1.375"/>
<path d="M44.2057 45.9282C44.0571 45.7654 43.8691 45.6437 43.6749 45.5424C43.2519 45.3218 42.7894 45.188 42.3301 45.0673V48.6262C43.0755 48.5419 43.9314 48.2714 44.3228 47.5754C44.5096 47.243 44.5468 46.8345 44.4707 46.4645C44.4294 46.264 44.3441 46.0799 44.2057 45.9282Z" fill="#FF9838"/>
<path d="M38.8341 40.2389C38.706 40.4261 38.6256 40.6387 38.6034 40.8647C38.5812 41.0911 38.5936 41.343 38.6797 41.5562C38.7616 41.7593 38.9332 41.9093 39.1103 42.0301C39.3091 42.1653 39.5277 42.2709 39.7503 42.3604C39.937 42.4355 40.1471 42.5074 40.3736 42.5769V39.3565C39.8015 39.4786 39.1764 39.7392 38.8341 40.2389Z" fill="#FF9838"/>
<path d="M43.5842 28.1566C46.6107 25.6141 48.633 19.8864 47.3884 19.6359C45.7348 19.3029 42.1439 20.763 40.4082 21.0203C37.9465 21.3175 35.2653 18.3508 33.7604 20.0045C32.5367 21.349 34.6377 26.2386 37.9246 28.3687C28.1181 33.1884 14.3345 57.3838 38.3808 59.1394C71.6529 61.5687 54.9924 32.8533 43.5842 28.1566ZM46.4416 47.2382C46.3393 48.1815 45.8394 49.0345 45.0921 49.6136C44.3031 50.2251 43.3135 50.5095 42.3303 50.5892V51.6314C42.3303 51.9103 42.2085 52.18 41.9997 52.3646C41.7128 52.6185 41.2911 52.6811 40.9429 52.5207C40.599 52.3625 40.3731 52.0098 40.3731 51.6314V50.4923C40.2045 50.4603 40.0371 50.4222 39.8717 50.3768C38.9528 50.1243 38.1004 49.6322 37.4778 48.904C37.1676 48.5411 36.9148 48.1292 36.7399 47.6847C36.6942 47.5685 36.6535 47.4501 36.6178 47.3305C36.5855 47.2222 36.5522 47.1121 36.5407 46.9992C36.5213 46.8098 36.5588 46.6166 36.6471 46.4479C36.8285 46.1009 37.2109 45.8913 37.6013 45.9261C37.9855 45.9602 38.3222 46.2268 38.4431 46.593C38.4804 46.7058 38.5057 46.8214 38.5475 46.933C38.589 47.0439 38.6391 47.1516 38.698 47.2542C38.8142 47.4562 38.9599 47.6425 39.1277 47.8042C39.4735 48.1374 39.9139 48.3539 40.3731 48.4827V44.6106C39.4753 44.3781 38.5485 44.0779 37.807 43.5014C37.4467 43.2211 37.1409 42.8729 36.9407 42.4607C36.7294 42.0257 36.6419 41.541 36.6383 41.0596C36.6347 40.5709 36.7275 40.0864 36.9314 39.6411C37.1224 39.2241 37.3974 38.8497 37.7345 38.5394C38.4553 37.876 39.4128 37.5059 40.3732 37.37V37.2848V36.288C40.3732 36.0093 40.495 35.7394 40.7038 35.5548C40.9908 35.301 41.4123 35.2383 41.7606 35.3988C42.1044 35.5571 42.3304 35.9096 42.3304 36.288V37.2848V37.3641C42.4583 37.3802 42.5859 37.3994 42.7129 37.4225C43.656 37.5931 44.5784 37.9826 45.268 38.6625C45.5947 38.9846 45.8622 39.3683 46.0503 39.7867C46.1028 39.9035 46.1488 40.0229 46.1886 40.1447C46.2256 40.2583 46.2629 40.3752 46.2806 40.4937C46.3088 40.6829 46.28 40.8784 46.199 41.0515C46.0331 41.4061 45.6611 41.6319 45.2697 41.6152C44.8851 41.5984 44.5367 41.348 44.399 40.9885C44.358 40.8816 44.3375 40.7684 44.2956 40.6618C44.2534 40.5538 44.1987 40.4509 44.1357 40.3536C44.0133 40.1645 43.8546 40.0023 43.6735 39.8688C43.2812 39.5791 42.8055 39.4282 42.3301 39.3439V43.0494C42.895 43.1846 43.4605 43.3322 44.0018 43.5456C44.8199 43.8682 45.5951 44.3629 46.0417 45.1429C45.9724 45.0214 45.905 44.903 46.044 45.1469C46.1805 45.3866 46.1153 45.2724 46.0468 45.1523C46.4021 45.7784 46.5188 46.527 46.4416 47.2382Z" fill="#FF9838"/>
</svg>
