<svg width="83" height="83" viewBox="0 0 83 83" fill="none" xmlns="http://www.w3.org/2000/svg">
<circle cx="41.25" cy="41.75" r="40.5625" stroke="white" stroke-opacity="0.16" stroke-width="1.375"/>
<path d="M57.2905 54.5064L50.1379 51.4511C49.4227 51.1456 48.6144 51.6122 48.5213 52.3844L47.5909 60.1064C47.4759 61.0608 48.5 61.737 49.3325 61.2563L50.8481 60.3813L52.2092 62.7388C52.5314 63.2968 53.2449 63.4881 53.8029 63.1658L56.834 61.4158C57.3919 61.0937 57.5832 60.3801 57.261 59.8221L55.8998 57.4646L57.4154 56.5896C58.2481 56.1089 58.1746 54.884 57.2905 54.5064Z" fill="#FF9838"/>
<path d="M40.4601 37.3055H38.9551C38.9567 37.8508 38.9583 38.476 38.9583 38.759C38.9583 39.0915 38.961 39.6953 38.9638 40.2178C39.4961 40.2151 40.1157 40.2124 40.4601 40.2124C41.3223 40.2124 42.0508 39.5468 42.0508 38.759C42.0507 37.9712 41.3223 37.3055 40.4601 37.3055Z" fill="#FF9838"/>
<path d="M40.5 23.5C30.835 23.5 23 31.335 23 41C23 50.665 30.835 58.5 40.5 58.5C42.2464 58.5 43.9324 58.2429 45.5237 57.7664L46.2059 52.1052C46.485 49.7887 48.9098 48.3887 51.0556 49.3052L54.8984 50.9467C56.8535 48.1221 58 44.6953 58 41C58 31.335 50.165 23.5 40.5 23.5ZM34.6877 37.3056H33.0723V45.6667C33.0723 46.2036 32.637 46.6389 32.1001 46.6389C31.5632 46.6389 31.1279 46.2036 31.1279 45.6667V37.3056H29.5333C28.9964 37.3056 28.5611 36.8703 28.5611 36.3333C28.5611 35.7964 28.9964 35.3611 29.5333 35.3611H34.6877C35.2246 35.3611 35.66 35.7964 35.66 36.3333C35.66 36.8703 35.2246 37.3056 34.6877 37.3056ZM43.7529 45.0243C44.1076 45.4274 44.0685 46.0417 43.6654 46.3965C43.4807 46.5591 43.2515 46.6389 43.0234 46.6389C42.7538 46.6389 42.4854 46.5274 42.2932 46.309L38.9491 42.5095V45.6667C38.9491 46.2036 38.5138 46.6389 37.9769 46.6389C37.44 46.6389 37.0047 46.2036 37.0047 45.6667V36.3333C37.0047 35.7964 37.44 35.3611 37.9769 35.3611C37.9774 35.3611 37.9779 35.3612 37.9784 35.3612C37.9789 35.3612 37.9794 35.3611 37.9799 35.3611H40.4601C42.4094 35.3611 43.9953 36.8854 43.9953 38.759C43.9953 40.3994 42.7796 41.7719 41.1687 42.0883L43.7529 45.0243ZM52.2815 36.8874L49.4814 41.1888L49.4704 45.6691C49.4691 46.2053 49.0341 46.639 48.4982 46.639C48.4974 46.639 48.4966 46.639 48.4958 46.639C47.9589 46.6376 47.5247 46.2013 47.526 45.6644L47.5369 41.1874L44.7145 36.8649C44.421 36.4154 44.5475 35.8129 44.997 35.5194C45.4467 35.2258 46.0491 35.3523 46.3426 35.8019L48.5085 39.119L50.6518 35.8267C50.9448 35.3767 51.547 35.2494 51.997 35.5423C52.4471 35.8352 52.5744 36.4374 52.2815 36.8874Z" fill="#FF9838"/>
</svg>
