<svg width="84" height="83" viewBox="0 0 84 83" fill="none" xmlns="http://www.w3.org/2000/svg">
<circle cx="42" cy="41.75" r="40.5625" stroke="white" stroke-opacity="0.16" stroke-width="1.375"/>
<path d="M22.8113 48.5189C22.3309 48.5189 21.8702 48.7098 21.5305 49.0494C21.1908 49.3891 21 49.8498 21 50.3302V53.0472C20.9998 53.1068 21.0113 53.1657 21.034 53.2208C21.0567 53.2758 21.09 53.3259 21.1321 53.368C21.1742 53.4101 21.2242 53.4434 21.2793 53.4661C21.3343 53.4887 21.3933 53.5003 21.4528 53.5001H27.7925C27.852 53.5003 27.911 53.4887 27.966 53.4661C28.0211 53.4434 28.0711 53.4101 28.1132 53.368C28.1553 53.3259 28.1886 53.2758 28.2113 53.2208C28.234 53.1657 28.2455 53.1068 28.2453 53.0472V50.3302C28.2453 49.8498 28.0545 49.3891 27.7148 49.0494C27.3751 48.7098 26.9144 48.5189 26.434 48.5189H22.8113Z" fill="#FF9838"/>
<path d="M33.6785 43.085C33.1981 43.085 32.7374 43.2758 32.3977 43.6155C32.058 43.9552 31.8672 44.4159 31.8672 44.8963V53.0472C31.867 53.1068 31.8785 53.1657 31.9012 53.2208C31.9238 53.2758 31.9572 53.3259 31.9993 53.368C32.0414 53.4101 32.0914 53.4434 32.1464 53.4661C32.2015 53.4887 32.2605 53.5003 32.32 53.5001H38.6596C38.7192 53.5003 38.7782 53.4887 38.8332 53.4661C38.8883 53.4434 38.9383 53.4101 38.9804 53.368C39.0225 53.3259 39.0558 53.2758 39.0785 53.2208C39.1012 53.1657 39.1127 53.1068 39.1125 53.0472V44.8963C39.1125 44.4159 38.9216 43.9552 38.5819 43.6155C38.2423 43.2758 37.7815 43.085 37.3012 43.085H33.6785Z" fill="#FF9838"/>
<path d="M44.5477 36.7452C44.0673 36.7452 43.6065 36.9361 43.2669 37.2758C42.9272 37.6155 42.7363 38.0762 42.7363 38.5566V53.0471C42.7361 53.1067 42.7476 53.1656 42.7703 53.2207C42.793 53.2757 42.8263 53.3258 42.8684 53.3679C42.9105 53.41 42.9605 53.4433 43.0156 53.466C43.0706 53.4886 43.1296 53.5002 43.1892 53.5H49.5288C49.5883 53.5002 49.6473 53.4886 49.7024 53.466C49.7574 53.4433 49.8074 53.41 49.8495 53.3679C49.8916 53.3258 49.925 53.2757 49.9476 53.2207C49.9703 53.1656 49.9819 53.1067 49.9816 53.0471V38.5566C49.9816 38.0762 49.7908 37.6155 49.4511 37.2758C49.1114 36.9361 48.6507 36.7452 48.1703 36.7452H44.5477Z" fill="#FF9838"/>
<path d="M54.0563 53.5H60.396C60.4555 53.5002 60.5145 53.4887 60.5695 53.466C60.6246 53.4433 60.6746 53.41 60.7167 53.3679C60.7588 53.3258 60.7921 53.2758 60.8148 53.2207C60.8375 53.1657 60.849 53.1067 60.8488 53.0472V31.3113C60.8488 30.8309 60.658 30.3702 60.3183 30.0305C59.9786 29.6908 59.5179 29.5 59.0375 29.5H55.4148C54.9344 29.5 54.4737 29.6908 54.134 30.0305C53.7944 30.3702 53.6035 30.8309 53.6035 31.3113V53.0472C53.6033 53.1067 53.6148 53.1657 53.6375 53.2207C53.6602 53.2758 53.6935 53.3258 53.7356 53.3679C53.7777 53.41 53.8277 53.4433 53.8828 53.466C53.9378 53.4887 53.9968 53.5002 54.0563 53.5Z" fill="#FF9838"/>
</svg>
