<svg width="38" height="77" viewBox="0 0 38 77" fill="none" xmlns="http://www.w3.org/2000/svg">
<path d="M21.5 3C21.5 1.61929 20.3807 0.5 19 0.5C17.6193 0.5 16.5 1.61929 16.5 3L21.5 3ZM17.2322 75.7678C18.2085 76.7441 19.7915 76.7441 20.7678 75.7678L36.6777 59.8579C37.654 58.8816 37.654 57.2986 36.6777 56.3223C35.7014 55.346 34.1184 55.346 33.1421 56.3223L19 70.4645L4.85786 56.3223C3.88155 55.346 2.29864 55.346 1.32233 56.3223C0.346017 57.2986 0.346017 58.8816 1.32233 59.8579L17.2322 75.7678ZM16.5 3L16.5 74L21.5 74L21.5 3L16.5 3Z" fill="url(#paint0_linear_2003_20)"/>
<defs>
<linearGradient id="paint0_linear_2003_20" x1="18.5" y1="74" x2="18.5" y2="8.5" gradientUnits="userSpaceOnUse">
<stop stop-color="#FFB979"/>
<stop offset="1" stop-color="#070707"/>
</linearGradient>
</defs>
</svg>
