<svg width="42" height="42" viewBox="0 0 42 42" fill="none" xmlns="http://www.w3.org/2000/svg">
<circle cx="21" cy="21" r="21" fill="#262626"/>
<path d="M19.8731 9C19.6415 9 19.4195 9.09194 19.2557 9.25558C19.092 9.41923 19 9.64118 19 9.87261V20.3745C19 21.0708 19.2768 21.7386 19.7694 22.231C20.262 22.7234 20.9302 23 21.6269 23H32.1269C32.2422 23 32.3563 22.9772 32.4628 22.9329C32.5692 22.8885 32.6658 22.8236 32.747 22.7417C32.8281 22.6599 32.8923 22.5628 32.9357 22.456C32.9791 22.3493 33.001 22.235 33 22.1197C32.9959 18.6414 31.6116 15.3067 29.1507 12.8472C26.6898 10.3876 23.3533 9.00405 19.8731 9ZM21.6269 21.2471C21.5116 21.2481 21.3973 21.2263 21.2904 21.1829C21.1836 21.1395 21.0865 21.0754 21.0046 20.9943C20.9227 20.9131 20.8577 20.8166 20.8134 20.7102C20.769 20.6039 20.7462 20.4898 20.7462 20.3745V10.7835C23.4521 10.9958 25.9934 12.1663 27.9126 14.0846C29.8319 16.0028 31.0031 18.5427 31.2155 21.2471H21.6269Z" fill="#FF9838"/>
<path d="M30.4306 24.3596C30.3228 24.3211 30.2084 24.3044 30.0941 24.3104C29.9797 24.3163 29.8677 24.3449 29.7645 24.3944C29.6612 24.4439 29.5688 24.5134 29.4925 24.5988C29.4163 24.6842 29.3577 24.7838 29.3201 24.892C28.6415 26.8486 27.341 28.5294 25.6173 29.6775C23.8936 30.8257 21.8415 31.3781 19.7744 31.2505C17.4117 31.1039 15.1858 30.0922 13.5218 28.4086C11.8578 26.725 10.8723 24.4876 10.7534 22.1235C10.6555 20.0751 11.2225 18.05 12.3698 16.3503C13.5172 14.6506 15.1834 13.3674 17.1198 12.6922C17.2277 12.6543 17.327 12.5954 17.4122 12.5191C17.4973 12.4427 17.5666 12.3504 17.616 12.2473C17.6655 12.1441 17.6941 12.0323 17.7003 11.9181C17.7065 11.8039 17.6902 11.6896 17.6522 11.5818C17.6143 11.4739 17.5554 11.3746 17.4791 11.2894C17.4027 11.2043 17.3104 11.135 17.2073 11.0856C17.1041 11.0361 16.9923 11.0075 16.8781 11.0013C16.7639 10.9951 16.6496 11.0114 16.5417 11.0494C14.2564 11.8447 12.2889 13.3567 10.9321 15.3602C9.57529 17.3638 8.90172 19.7519 9.01159 22.1691C9.1475 24.9667 10.3078 27.6166 12.2716 29.6139C14.2353 31.6112 16.8652 32.8164 19.6603 32.9998H20.2992C22.6381 33.0132 24.9225 32.2943 26.8321 30.944C28.7418 29.5936 30.181 27.6795 30.9479 25.47C31.0263 25.2542 31.0159 25.016 30.9189 24.8078C30.822 24.5997 30.6464 24.4384 30.4306 24.3596Z" fill="#FF9838"/>
</svg>
