<svg width="42" height="42" viewBox="0 0 42 42" fill="none" xmlns="http://www.w3.org/2000/svg">
<circle cx="21" cy="21" r="21" fill="#262626"/>
<path fill-rule="evenodd" clip-rule="evenodd" d="M11 14C11 12.3431 12.3432 11 14 11H16.9429C18.5997 11 19.9429 12.3432 19.9429 14V16.9429C19.9429 18.5997 18.5997 19.9429 16.9429 19.9429H14C12.3431 19.9429 11 18.5997 11 16.9429L11 14ZM14 13C13.4477 13 13 13.4477 13 14L13 16.9429C13 17.4951 13.4477 17.9429 14 17.9429H16.9429C17.4952 17.9429 17.9429 17.4951 17.9429 16.9429V14C17.9429 13.4477 17.4952 13 16.9429 13H14Z" fill="#FF9838"/>
<path fill-rule="evenodd" clip-rule="evenodd" d="M11 25.0571C11 23.4003 12.3432 22.0571 14 22.0571H16.9429C18.5997 22.0571 19.9429 23.4003 19.9429 25.0571V28C19.9429 29.6569 18.5997 31 16.9429 31H14C12.3432 31 11 29.6569 11 28V25.0571ZM14 24.0571C13.4477 24.0571 13 24.5049 13 25.0571V28C13 28.5523 13.4477 29 14 29H16.9429C17.4951 29 17.9429 28.5523 17.9429 28V25.0571C17.9429 24.5049 17.4951 24.0571 16.9429 24.0571H14Z" fill="#FF9838"/>
<path fill-rule="evenodd" clip-rule="evenodd" d="M22.0586 14C22.0586 12.3432 23.4017 11 25.0586 11H28.0015C29.6583 11 31.0015 12.3432 31.0015 14V16.9429C31.0015 18.5997 29.6583 19.9429 28.0015 19.9429H25.0586C23.4017 19.9429 22.0586 18.5997 22.0586 16.9429V14ZM25.0586 13C24.5063 13 24.0586 13.4477 24.0586 14V16.9429C24.0586 17.4951 24.5063 17.9429 25.0586 17.9429H28.0015C28.5537 17.9429 29.0015 17.4951 29.0015 16.9429V14C29.0015 13.4477 28.5537 13 28.0015 13H25.0586Z" fill="#FF9838"/>
<path fill-rule="evenodd" clip-rule="evenodd" d="M27 22C27.5523 22 28 22.4477 28 23V25H30C30.5523 25 31 25.4477 31 26C31 26.5523 30.5523 27 30 27H28V29C28 29.5523 27.5523 30 27 30C26.4477 30 26 29.5523 26 29V27H24C23.4477 27 23 26.5523 23 26C23 25.4477 23.4477 25 24 25H26V23C26 22.4477 26.4477 22 27 22Z" fill="#FF9838"/>
</svg>
