<svg width="42" height="42" viewBox="0 0 42 42" fill="none" xmlns="http://www.w3.org/2000/svg">
<circle cx="21" cy="21" r="21" fill="#262626"/>
<g clip-path="url(#clip0_2001_22)">
<path d="M21 8C13.8339 8 8 13.8339 8 21C8 28.1661 13.8339 34 21 34C28.1661 34 34 28.1661 34 21C34 13.8339 28.1661 8 21 8ZM21 31.3087C15.3165 31.3087 10.6913 26.6835 10.6913 21C10.6913 15.3165 15.3165 10.6913 21 10.6913C26.6835 10.6913 31.3087 15.3165 31.3087 21C31.3087 26.6835 26.6835 31.3087 21 31.3087Z" fill="#FF9838"/>
<path d="M23.2184 20.2694C22.5899 19.9202 21.9237 19.6624 21.263 19.3884C20.8816 19.2326 20.5163 19.0446 20.194 18.7868C19.5601 18.2764 19.6783 17.4545 20.425 17.1268C20.6345 17.0355 20.8547 17.0033 21.0804 16.9925C21.9452 16.9442 22.7618 17.1054 23.5461 17.4814C23.9328 17.6694 24.0618 17.6103 24.1961 17.2074C24.3357 16.7777 24.4539 16.3425 24.5775 15.9128C24.6634 15.6227 24.556 15.4293 24.282 15.3111C23.7824 15.0909 23.2667 14.9297 22.7242 14.8492C22.0204 14.7363 22.0204 14.7363 22.0151 14.0273C22.0097 13.0227 22.0097 13.0227 21.0105 13.0281C20.8655 13.0281 20.7204 13.0227 20.5754 13.0281C20.108 13.0442 20.0275 13.1248 20.0167 13.5921C20.0113 13.8016 20.0167 14.0165 20.0167 14.226C20.0113 14.8545 20.0113 14.8438 19.4097 15.0587C17.9593 15.5851 17.0622 16.5735 16.9655 18.1582C16.8795 19.5603 17.6101 20.5058 18.7597 21.1934C19.4688 21.6178 20.2531 21.8702 21.0051 22.2033C21.3006 22.3322 21.5799 22.4826 21.8217 22.6868C22.5469 23.283 22.4126 24.2768 21.5531 24.6529C21.0911 24.8516 20.6076 24.9054 20.1134 24.8409C19.3452 24.7442 18.6093 24.5454 17.9217 24.1855C17.5188 23.976 17.4006 24.0297 17.2609 24.4702C17.1428 24.8516 17.0353 25.233 16.9332 25.6144C16.7936 26.1301 16.8419 26.2537 17.3361 26.4901C17.9593 26.7909 18.6308 26.9467 19.313 27.0595C19.8448 27.1454 19.8663 27.1669 19.8717 27.7202C19.8717 27.9727 19.877 28.2252 19.877 28.4723C19.8824 28.7892 20.0328 28.9719 20.3605 28.9773C20.7312 28.9826 21.1018 28.9826 21.4725 28.9773C21.7733 28.9719 21.9291 28.8054 21.9345 28.4992C21.9345 28.1554 21.9506 27.8116 21.9399 27.4678C21.9237 27.1186 22.0742 26.9413 22.4126 26.85C23.1861 26.6405 23.8469 26.2215 24.3572 25.6037C25.7539 23.8847 25.2167 21.376 23.2184 20.2694Z" fill="#FF9838"/>
</g>
<defs>
<clipPath id="clip0_2001_22">
<rect width="26" height="26" fill="white" transform="translate(8 8)"/>
</clipPath>
</defs>
</svg>
