<svg width="405" height="41" viewBox="0 0 405 41" fill="none" xmlns="http://www.w3.org/2000/svg">
<rect width="40.8995" height="40.8995" transform="translate(183.535)" fill="#00B57A"/>
<path d="M203.985 27.9671L210.205 26.3016L212.803 34.7644L203.985 27.9671ZM218.299 17.0284H207.35L203.985 6.13477L200.619 17.0284H189.67L198.531 23.7807L195.166 34.6744L204.027 27.9221L209.48 23.7807L218.299 17.0284Z" fill="white"/>
<rect width="40.8995" height="40.8995" transform="translate(228.524)" fill="#00B57A"/>
<path d="M248.974 27.9671L255.194 26.3016L257.793 34.7644L248.974 27.9671ZM263.289 17.0284H252.339L248.974 6.13477L245.608 17.0284H234.659L243.521 23.7807L240.155 34.6744L249.016 27.9221L254.47 23.7807L263.289 17.0284Z" fill="white"/>
<rect width="40.8995" height="40.8995" transform="translate(273.514)" fill="#00B57A"/>
<path d="M293.963 27.9671L300.183 26.3016L302.782 34.7644L293.963 27.9671ZM308.278 17.0284H297.329L293.963 6.13477L290.598 17.0284H279.648L288.51 23.7807L285.144 34.6744L294.006 27.9221L299.459 23.7807L308.278 17.0284Z" fill="white"/>
<rect width="40.8995" height="40.8995" transform="translate(318.503)" fill="#00B57A"/>
<path d="M338.953 27.9671L345.173 26.3016L347.772 34.7644L338.953 27.9671ZM353.268 17.0284H342.318L338.953 6.13477L335.587 17.0284H324.638L333.5 23.7807L330.134 34.6744L338.995 27.9221L344.449 23.7807L353.268 17.0284Z" fill="white"/>
<rect width="40.8995" height="40.8995" transform="translate(363.493)" fill="url(#paint0_linear_141_105)"/>
<path d="M383.942 27.9671L390.162 26.3016L392.761 34.7644L383.942 27.9671ZM398.257 17.0284H387.308L383.942 6.13477L380.577 17.0284H369.627L378.489 23.7807L375.123 34.6744L383.985 27.9221L389.438 23.7807L398.257 17.0284Z" fill="white"/>
<path d="M42.8054 14.1772H59.2978V17.2543H52.813V34.5519H49.2471V17.2543H42.791V14.1772H42.8054ZM58.5932 19.7993H61.6415V22.6463H61.699C61.7997 22.2437 61.9866 21.8555 62.2598 21.4816C62.533 21.1078 62.8637 20.7483 63.2519 20.4464C63.6402 20.13 64.0715 19.8856 64.546 19.6843C65.0205 19.4974 65.5094 19.3967 65.9983 19.3967C66.3721 19.3967 66.6453 19.4111 66.7891 19.4255C66.9329 19.4399 67.0767 19.4686 67.2349 19.483V22.6176C67.0048 22.5744 66.7747 22.5457 66.5303 22.5169C66.2859 22.4881 66.0558 22.4738 65.8257 22.4738C65.2793 22.4738 64.7617 22.5888 64.2728 22.8045C63.784 23.0202 63.367 23.3509 63.0075 23.7679C62.648 24.1992 62.3605 24.7169 62.1448 25.3495C61.9291 25.9822 61.8285 26.7011 61.8285 27.5207V34.5375H58.5789V19.7993H58.5932ZM82.1744 34.5519H78.9823V32.4957H78.9248C78.5222 33.2434 77.9326 33.833 77.1418 34.2787C76.351 34.7244 75.5458 34.9545 74.7262 34.9545C72.785 34.9545 71.3759 34.48 70.5132 33.5166C69.6505 32.5533 69.2191 31.101 69.2191 29.1599V19.7993H72.4687V28.8435C72.4687 30.1376 72.7132 31.0579 73.2164 31.5899C73.7053 32.1219 74.4098 32.3951 75.3013 32.3951C75.9915 32.3951 76.5523 32.2944 77.0124 32.0788C77.4725 31.8631 77.8464 31.5899 78.1196 31.2304C78.4071 30.8853 78.6084 30.454 78.7378 29.9651C78.8672 29.4762 78.9248 28.9442 78.9248 28.369V19.8137H82.1744V34.5519ZM87.7102 29.8213C87.8108 30.7703 88.1703 31.4317 88.7886 31.8199C89.4212 32.1938 90.1689 32.3951 91.046 32.3951C91.348 32.3951 91.6931 32.3663 92.0813 32.3232C92.4695 32.2801 92.8434 32.1794 93.1741 32.05C93.5192 31.9206 93.7924 31.7193 94.0224 31.4605C94.2381 31.2017 94.3388 30.8709 94.3244 30.454C94.31 30.037 94.1518 29.6919 93.8643 29.4331C93.5767 29.1599 93.2172 28.9586 92.7715 28.786C92.3257 28.6279 91.8225 28.4841 91.2473 28.369C90.6722 28.254 90.097 28.1246 89.5075 27.9952C88.9036 27.8658 88.3141 27.6932 87.7533 27.5063C87.1925 27.3194 86.6893 27.0606 86.2435 26.7299C85.7978 26.4135 85.4383 25.9966 85.1795 25.4933C84.9063 24.99 84.7769 24.3718 84.7769 23.6241C84.7769 22.8189 84.9782 22.1574 85.3664 21.611C85.7547 21.0647 86.2579 20.6333 86.8474 20.3026C87.4513 19.9719 88.1128 19.7418 88.8461 19.598C89.5794 19.4686 90.284 19.3967 90.9454 19.3967C91.7075 19.3967 92.4408 19.483 93.1309 19.6412C93.8211 19.7993 94.4538 20.0581 95.0146 20.432C95.5753 20.7915 96.0354 21.266 96.4093 21.8411C96.7831 22.4163 97.0132 23.1208 97.1139 23.9404H93.7205C93.5623 23.1639 93.2172 22.6319 92.6565 22.3731C92.0957 22.0999 91.4486 21.9705 90.7297 21.9705C90.4996 21.9705 90.2264 21.9849 89.9101 22.028C89.5938 22.0712 89.3062 22.1431 89.0186 22.2437C88.7454 22.3444 88.5154 22.5025 88.3141 22.7038C88.1272 22.9051 88.0265 23.1639 88.0265 23.4947C88.0265 23.8973 88.1703 24.2136 88.4435 24.458C88.7167 24.7025 89.0761 24.9038 89.5219 25.0763C89.9676 25.2345 90.4709 25.3783 91.046 25.4933C91.6212 25.6083 92.2107 25.7377 92.8146 25.8671C93.4041 25.9966 93.9793 26.1691 94.5544 26.356C95.1296 26.5429 95.6328 26.8018 96.0786 27.1325C96.5243 27.4632 96.8838 27.8658 97.157 28.3547C97.4302 28.8435 97.574 29.4618 97.574 30.1808C97.574 31.0579 97.3727 31.7912 96.9701 32.4095C96.5675 33.0134 96.0498 33.5166 95.4172 33.8905C94.7845 34.2643 94.0656 34.5519 93.2891 34.7244C92.5127 34.897 91.7362 34.9833 90.9741 34.9833C90.0395 34.9833 89.1768 34.8826 88.386 34.6669C87.5951 34.4512 86.905 34.1349 86.3298 33.7179C85.7547 33.2866 85.2945 32.7546 84.9638 32.1219C84.6331 31.4892 84.4606 30.7272 84.4318 29.8501H87.7102V29.8213ZM98.4367 19.7993H100.895V15.3707H104.145V19.7993H107.078V22.2293H104.145V30.1089C104.145 30.454 104.159 30.7415 104.188 31.0004C104.217 31.2448 104.289 31.4605 104.389 31.633C104.49 31.8056 104.648 31.935 104.864 32.0212C105.08 32.1075 105.353 32.1507 105.727 32.1507C105.957 32.1507 106.187 32.1506 106.417 32.1363C106.647 32.1219 106.877 32.0931 107.107 32.0356V34.5519C106.748 34.595 106.388 34.6238 106.057 34.6669C105.712 34.7101 105.367 34.7244 105.008 34.7244C104.145 34.7244 103.455 34.6382 102.937 34.48C102.42 34.3218 102.003 34.0774 101.715 33.7611C101.413 33.4447 101.226 33.0565 101.111 32.582C101.01 32.1075 100.939 31.5611 100.924 30.9572V22.2581H98.4655V19.7993H98.4367ZM109.379 19.7993H112.456V21.798H112.513C112.974 20.9352 113.606 20.3313 114.426 19.9575C115.245 19.5836 116.123 19.3967 117.086 19.3967C118.251 19.3967 119.257 19.598 120.12 20.015C120.983 20.4176 121.701 20.9784 122.277 21.6973C122.852 22.4163 123.269 23.2502 123.556 24.1992C123.844 25.1482 123.988 26.1691 123.988 27.2475C123.988 28.2396 123.858 29.203 123.599 30.1232C123.341 31.0579 122.952 31.8775 122.435 32.5964C121.917 33.3153 121.256 33.8761 120.451 34.3075C119.645 34.7388 118.711 34.9545 117.618 34.9545C117.143 34.9545 116.669 34.9114 116.194 34.8251C115.72 34.7388 115.26 34.595 114.828 34.4081C114.397 34.2212 113.98 33.9767 113.621 33.6748C113.247 33.3728 112.945 33.0278 112.686 32.6395H112.629V40.0014H109.379V19.7993ZM120.738 27.19C120.738 26.5286 120.652 25.8815 120.479 25.2489C120.307 24.6162 120.048 24.0698 119.703 23.5809C119.358 23.0921 118.926 22.7038 118.423 22.4163C117.905 22.1287 117.316 21.9705 116.655 21.9705C115.289 21.9705 114.253 22.445 113.563 23.394C112.873 24.343 112.528 25.6083 112.528 27.19C112.528 27.9377 112.614 28.6279 112.801 29.2605C112.988 29.8932 113.247 30.4396 113.621 30.8997C113.98 31.3598 114.411 31.7193 114.915 31.9781C115.418 32.2513 116.008 32.3807 116.669 32.3807C117.417 32.3807 118.035 32.2225 118.553 31.9206C119.07 31.6186 119.487 31.216 119.818 30.7415C120.149 30.2527 120.393 29.7063 120.537 29.088C120.666 28.4697 120.738 27.837 120.738 27.19ZM126.475 14.1772H129.725V17.2543H126.475V14.1772ZM126.475 19.7993H129.725V34.5519H126.475V19.7993ZM132.629 14.1772H135.879V34.5519H132.629V14.1772ZM145.843 34.9545C144.664 34.9545 143.615 34.7532 142.694 34.365C141.774 33.9767 140.998 33.4304 140.351 32.7546C139.718 32.0644 139.229 31.2448 138.898 30.2958C138.568 29.3468 138.395 28.2972 138.395 27.1612C138.395 26.0397 138.568 25.0044 138.898 24.0554C139.229 23.1064 139.718 22.2868 140.351 21.5967C140.983 20.9065 141.774 20.3745 142.694 19.9862C143.615 19.598 144.664 19.3967 145.843 19.3967C147.022 19.3967 148.072 19.598 148.992 19.9862C149.913 20.3745 150.689 20.9209 151.336 21.5967C151.969 22.2868 152.458 23.1064 152.788 24.0554C153.119 25.0044 153.292 26.0397 153.292 27.1612C153.292 28.2972 153.119 29.3468 152.788 30.2958C152.458 31.2448 151.969 32.0644 151.336 32.7546C150.703 33.4447 149.913 33.9767 148.992 34.365C148.072 34.7532 147.022 34.9545 145.843 34.9545ZM145.843 32.3807C146.562 32.3807 147.195 32.2225 147.727 31.9206C148.259 31.6186 148.69 31.216 149.035 30.7272C149.381 30.2383 149.625 29.6775 149.798 29.0592C149.956 28.4409 150.042 27.8083 150.042 27.1612C150.042 26.5286 149.956 25.9103 149.798 25.2776C149.639 24.645 149.381 24.0986 149.035 23.6097C148.69 23.1208 148.259 22.7326 147.727 22.4306C147.195 22.1287 146.562 21.9705 145.843 21.9705C145.124 21.9705 144.492 22.1287 143.96 22.4306C143.428 22.7326 142.996 23.1352 142.651 23.6097C142.306 24.0986 142.062 24.645 141.889 25.2776C141.731 25.9103 141.645 26.5286 141.645 27.1612C141.645 27.8083 141.731 28.4409 141.889 29.0592C142.047 29.6775 142.306 30.2383 142.651 30.7272C142.996 31.216 143.428 31.6186 143.96 31.9206C144.492 32.2369 145.124 32.3807 145.843 32.3807ZM154.241 19.7993H156.699V15.3707H159.949V19.7993H162.882V22.2293H159.949V30.1089C159.949 30.454 159.963 30.7415 159.992 31.0004C160.021 31.2448 160.093 31.4605 160.193 31.633C160.294 31.8056 160.452 31.935 160.668 32.0212C160.884 32.1075 161.157 32.1507 161.531 32.1507C161.761 32.1507 161.991 32.1506 162.221 32.1363C162.451 32.1219 162.681 32.0931 162.911 32.0356V34.5519C162.551 34.595 162.192 34.6238 161.861 34.6669C161.516 34.7101 161.171 34.7244 160.812 34.7244C159.949 34.7244 159.259 34.6382 158.741 34.48C158.223 34.3218 157.806 34.0774 157.519 33.7611C157.217 33.4447 157.03 33.0565 156.915 32.582C156.814 32.1075 156.742 31.5611 156.728 30.9572V22.2581H154.269V19.7993H154.241Z" fill="white"/>
<path d="M39.0095 14.1774H24.1131L19.5119 0L14.8964 14.1774L0 14.163L12.0638 22.9341L7.44818 37.0971L19.5119 28.3405L31.5613 37.0971L26.9601 22.9341L39.0095 14.1774Z" fill="#00B67A"/>
<path d="M28.0606 26.454L27.0253 23.2476L19.5771 28.654L28.0606 26.454Z" fill="#005128"/>
<defs>
<linearGradient id="paint0_linear_141_105" x1="0" y1="20.4498" x2="40.8995" y2="20.4498" gradientUnits="userSpaceOnUse">
<stop stop-color="#00B57A"/>
<stop offset="0.5" stop-color="#00B57A"/>
<stop offset="0.5001" stop-color="#00B57A" stop-opacity="0"/>
<stop offset="0.5002" stop-color="#D9D9D9"/>
<stop offset="0.9998" stop-color="#D9D9D9"/>
<stop offset="0.9999" stop-color="#00B57A" stop-opacity="0"/>
<stop offset="1" stop-color="#D9D9D9"/>
</linearGradient>
</defs>
</svg>
